<mxfile host="Electron" modified="2024-08-17T10:28:05.235Z" agent="Mozilla/5.0 (Windows NT 10.0; Win64; x64) AppleWebKit/537.36 (KHTML, like Gecko) draw.io/24.2.5 Chrome/120.0.6099.109 Electron/28.1.0 Safari/537.36" etag="CuJl9sLRNhYoEyzq-FU6" version="24.2.5" type="device">
  <diagram name="Strona-1" id="aPe8ZenGqiOVtFxBiTSM">
    <mxGraphModel dx="2022" dy="1881" grid="1" gridSize="10" guides="1" tooltips="1" connect="1" arrows="1" fold="1" page="1" pageScale="1" pageWidth="827" pageHeight="1169" math="0" shadow="0">
      <root>
        <mxCell id="0" />
        <mxCell id="1" parent="0" />
        <mxCell id="MJknPAp4tl3YlN5xwhDF-21" value="" style="rounded=1;whiteSpace=wrap;html=1;fillColor=#717882;gradientColor=#34445C;strokeColor=#6c8ebf;glass=1;shadow=1;" vertex="1" parent="1">
          <mxGeometry x="-210" y="90" width="820" height="660" as="geometry" />
        </mxCell>
        <mxCell id="MJknPAp4tl3YlN5xwhDF-6" value="" style="rounded=1;whiteSpace=wrap;html=1;fillColor=#f5f5f5;gradientColor=#454545;strokeColor=#666666;glass=1;shadow=1;" vertex="1" parent="1">
          <mxGeometry x="50" y="200" width="480" height="520" as="geometry" />
        </mxCell>
        <mxCell id="MJknPAp4tl3YlN5xwhDF-3" value="&lt;h1&gt;&lt;font color=&quot;#ffffff&quot;&gt;Main Board&lt;/font&gt;&lt;/h1&gt;" style="rounded=1;whiteSpace=wrap;html=1;fillColor=#ef159f;gradientColor=#003efa;strokeColor=#996185;glass=1;" vertex="1" parent="1">
          <mxGeometry x="170" y="250" width="180" height="130" as="geometry" />
        </mxCell>
        <mxCell id="MJknPAp4tl3YlN5xwhDF-4" value="&lt;h1 style=&quot;font-size: 21px;&quot;&gt;&lt;font color=&quot;#ffffff&quot;&gt;Communication&lt;br&gt;&amp;amp; navigation board&lt;/font&gt;&lt;/h1&gt;" style="rounded=1;whiteSpace=wrap;html=1;fillColor=#45FC17;gradientColor=#7ea6e0;strokeColor=#6c8ebf;glass=1;shadow=1;" vertex="1" parent="1">
          <mxGeometry x="170" y="390" width="180" height="130" as="geometry" />
        </mxCell>
        <mxCell id="MJknPAp4tl3YlN5xwhDF-5" value="&lt;h1&gt;&lt;b&gt;Driver board&lt;/b&gt;&lt;/h1&gt;" style="rounded=1;whiteSpace=wrap;html=1;fillColor=#3B403A;gradientColor=#1F1F1F;strokeColor=#82b366;glass=1;shadow=1;" vertex="1" parent="1">
          <mxGeometry x="170" y="530" width="180" height="130" as="geometry" />
        </mxCell>
        <mxCell id="MJknPAp4tl3YlN5xwhDF-11" value="" style="endArrow=classic;html=1;rounded=0;entryX=-0.001;entryY=0.696;entryDx=0;entryDy=0;entryPerimeter=0;strokeColor=#000000;" edge="1" parent="1" target="MJknPAp4tl3YlN5xwhDF-3">
          <mxGeometry width="50" height="50" relative="1" as="geometry">
            <mxPoint x="170" y="430" as="sourcePoint" />
            <mxPoint x="310" y="420" as="targetPoint" />
            <Array as="points">
              <mxPoint x="150" y="430" />
              <mxPoint x="150" y="340" />
            </Array>
          </mxGeometry>
        </mxCell>
        <mxCell id="MJknPAp4tl3YlN5xwhDF-12" value="&lt;h1&gt;Ground&lt;/h1&gt;" style="rounded=1;whiteSpace=wrap;html=1;fillColor=#73D134;gradientColor=#363116;strokeColor=none;glass=1;shadow=1;" vertex="1" parent="1">
          <mxGeometry x="-160" y="382.5" width="170" height="145" as="geometry" />
        </mxCell>
        <mxCell id="MJknPAp4tl3YlN5xwhDF-14" value="" style="endArrow=classic;startArrow=classic;html=1;rounded=0;exitX=1;exitY=0.5;exitDx=0;exitDy=0;entryX=0;entryY=0.5;entryDx=0;entryDy=0;strokeColor=#000000;" edge="1" parent="1" source="MJknPAp4tl3YlN5xwhDF-12" target="MJknPAp4tl3YlN5xwhDF-4">
          <mxGeometry width="50" height="50" relative="1" as="geometry">
            <mxPoint x="50" y="500" as="sourcePoint" />
            <mxPoint x="100" y="450" as="targetPoint" />
          </mxGeometry>
        </mxCell>
        <mxCell id="MJknPAp4tl3YlN5xwhDF-15" value="GPS location and instructions form ground" style="text;html=1;align=center;verticalAlign=middle;whiteSpace=wrap;rounded=0;fontColor=#0A0A0A;" vertex="1" parent="1">
          <mxGeometry x="80" y="350" width="60" height="70" as="geometry" />
        </mxCell>
        <mxCell id="MJknPAp4tl3YlN5xwhDF-16" value="" style="endArrow=classic;html=1;rounded=0;exitX=1;exitY=0.75;exitDx=0;exitDy=0;entryX=1.008;entryY=0.309;entryDx=0;entryDy=0;entryPerimeter=0;fontColor=#000000;strokeColor=#000000;" edge="1" parent="1" source="MJknPAp4tl3YlN5xwhDF-3" target="MJknPAp4tl3YlN5xwhDF-4">
          <mxGeometry width="50" height="50" relative="1" as="geometry">
            <mxPoint x="200" y="420" as="sourcePoint" />
            <mxPoint x="250" y="370" as="targetPoint" />
            <Array as="points">
              <mxPoint x="370" y="348" />
              <mxPoint x="370" y="430" />
            </Array>
          </mxGeometry>
        </mxCell>
        <mxCell id="MJknPAp4tl3YlN5xwhDF-17" value="Temp, Hum,&lt;div&gt;Pressure&lt;/div&gt;&lt;div&gt;and&amp;nbsp;&lt;/div&gt;&lt;div&gt;data for ground&lt;/div&gt;" style="text;html=1;align=center;verticalAlign=middle;whiteSpace=wrap;rounded=0;fontColor=#0A0A0A;" vertex="1" parent="1">
          <mxGeometry x="370" y="350" width="60" height="80" as="geometry" />
        </mxCell>
        <mxCell id="MJknPAp4tl3YlN5xwhDF-18" value="" style="endArrow=classic;html=1;rounded=0;exitX=1;exitY=0.5;exitDx=0;exitDy=0;entryX=0.997;entryY=0.459;entryDx=0;entryDy=0;entryPerimeter=0;strokeColor=#000000;" edge="1" parent="1" source="MJknPAp4tl3YlN5xwhDF-3" target="MJknPAp4tl3YlN5xwhDF-5">
          <mxGeometry width="50" height="50" relative="1" as="geometry">
            <mxPoint x="190" y="510" as="sourcePoint" />
            <mxPoint x="240" y="460" as="targetPoint" />
            <Array as="points">
              <mxPoint x="450" y="315" />
              <mxPoint x="450" y="590" />
            </Array>
          </mxGeometry>
        </mxCell>
        <mxCell id="MJknPAp4tl3YlN5xwhDF-19" value="Driving all&amp;nbsp;&lt;div&gt;servos and BLDC&lt;/div&gt;&lt;div&gt;data&lt;/div&gt;" style="text;html=1;align=center;verticalAlign=middle;whiteSpace=wrap;rounded=0;fontColor=#0A0A0A;" vertex="1" parent="1">
          <mxGeometry x="450" y="400" width="60" height="80" as="geometry" />
        </mxCell>
        <mxCell id="MJknPAp4tl3YlN5xwhDF-24" value="" style="shape=image;aspect=fixed;image=data:image/png,iVBORw0KGgoAAAANSUhEUgAABaAAAAQ4CAYAAAD/4ntSAAAAAXNSR0IArs4c6QAAIABJREFUeF7s3U3ofdt5F/DVpnlv05egUASb4syBTQdaHEUFhY6aC4LOkiJSaAdJHBQHQhRHgphkUHAgJNGJsySC4EibqQhp60QpNVHozDZt2rw0aaO/h3vOvft/7nnZL+vZz977fDZc7k1++6yz92c9Z798zzpr/0CzECBAgAABAgQIECBAgAABAgQIECBAgACBBIEfSGhTkwQIECBAgAABAgQIECBAgAABAgQIECBAoAmgFQEBAgQIECBAgAABAgQIECBAgAABAgQIpAgIoFNYNUqAAAECBAgQIECAAAECBAgQIECAAAECAmg1QIAAAQIECBAgQIAAAQIECBAgQIAAAQIpAgLoFFaNEiBAgAABAgQIECBAgAABAgQIECBAgIAAWg0QIECAAAECBAgQIECAAAECBAgQIECAQIqAADqFVaMECBAgQIAAAQIECBAgQIAAAQIECBAgIIBWAwQIECBAgAABAgQIECBAgAABAgQIECCQIiCATmHVKAECBAgQIECAAAECBAgQIECAAAECBAgIoNUAAQIECBAgQIAAAQIECBAgQIAAAQIECKQICKBTWDVKgAABAgQIECBAgAABAgQIECBAgAABAgJoNUCAAAECBAgQIECAAAECBAgQIECAAAECKQIC6BRWjRIgQIAAAQIECBAgQIAAAQIECBAgQICAAFoNECBAgAABAgQIECBAgAABAgQIECBAgECKgAA6hVWjBAgQIECAAAECBAgQIECAAAECBAgQICCAVgMECBAgQIAAAQIECBAgQIAAAQIECBAgkCIggE5h1SgBAgQIECBAgAABAgQIECBAgAABAgQICKDVAAECBAgQIECAAAECBAgQIECAAAECBAikCAigU1g1SoAAAQIECBAgQIAAAQIECBAgQIAAAQICaDVAgAABAgQIECBAgAABAgQIECBAgAABAikCAugUVo0SIECAAAECBAgQIECAAAECBAgQIECAgABaDRAgQIAAAQIECBAgQIAAAQIECBAgQIBAioAAOoVVowQIECBAgAABAgQIECBAgAABAgQIECAggFYDBAgQIECAAAECBAgQIECAAAECBAgQIJAiIIBOYdUoAQIECBAgQIAAAQIECBAgQIAAAQIECAig1QABAgQIECBAgAABAgQIECBAgAABAgQIpAgIoFNYNUqAAAECBAgQIECAAAECBAgQIECAAAECAmg1QIAAAQIECBAgQIAAAQIECBAgQIAAAQIpAgLoFFaNEiBAgAABAgQIECBAgAABAgQIECBAgIAAWg0QIECAAAECBAgQIECAAAECBAgQIECAQIqAADqFVaMECBAgQIAAAQIECBAgQIAAAQIECBAgIIBWAwQIECBAgAABAgQIECBAgAABAgQIECCQIiCATmHVKAECBAgQIECAAAECBAgQIECAAAECBAgIoNUAAQIECBAgQIAAAQIECBAgQIAAAQIECKQICKBTWDVKgAABAgQIECBAgAABAgQIECBAgAABAgJoNUCAAAECBAgQIECAAAECBAgQIECAAAECKQIC6BRWjRIgQIAAAQIECBAgQIAAAQIECBAgQICAAFoNECBAgAABAgQIECBAgAABAgQIECBAgECKgAA6hVWjBAgQIECAAAECBAgQIECAAAECBAgQICCAVgMECBAgQIAAAQIECBAgQIAAAQIECBAgkCIggE5h1SgBAgQIECBAgAABAgQIECBAgAABAgQICKDVAAECBAgQIECAAAECBAgQIECAAAECBAikCAigU1g1SoAAAQIECBAgQIAAAQIECBAgQIAAAQICaDVAgAABAgQIECBAgAABAgQIECBAgAABAikCAugUVo0SIECAAAECBAgQIECAAAECBAgQIECAgABaDRAgQIAAAQIECBAgQIAAAQIECBAgQIBAioAAOoVVowQIECBAgAABAgQIECBAgAABAgQIECAggFYDBAgQIECAAAECBAgQIECAAAECBAgQIJAiIIBOYdUoAQIECBAgQIAAAQIECBAgQIAAAQIECAig1QABAgQIECBAgAABAgQIECBAgAABAgQIpAgIoFNYNUqAAAECBAgQIECAAAECBAgQIECAAAECAmg1QIAAAQIECBAgQIAAAQIECBAgQIAAAQIpAgLoFFaNEiBAgAABAgQIECBAgAABAgQIECBAgIAAWg0QIECAAAECBAgQIECAAAECBAgQIECAQIqAADqFVaMECBAgQIAAAQIECBAgQIAAAQIECBAgIIBWAwQIECBAgAABAgQIECBAgAABAgQIECCQIiCATmHVKAECBAgQIECAAAECBAgQIECAAAECBAgIoNUAAQIECBAgQIAAAQIECBAgQIAAAQIECKQICKBTWDVKgAABAgQIECBAgAABAgQIECBAgAABAgJoNUCAAAECBAgQIECAAAECBAgQIECAAAECKQIC6BRWjRIgQIAAAQIECBAgQIAAAQIECBAgQICAAFoNECBAgAABAgQIECBAgAABAgQIECBAgECKgAA6hVWjBAgQIECAAAECBAgQIECAAAECBAgQICCAVgMECBAgQIAAAQIECBAgQIAAAQIECBAgkCIggE5h1SgBAgQIECBAgAABAgQIECBAgAABAgQICKDVAAECBAgQIECAAAECBAgQIECAAAECBAikCAigU1g1SoAAAQIECBAgQIAAAQIECBAgQIAAAQICaDVAgAABAgQIECBAgAABAgQIECBAgAABAikCAugUVo0SIECAAAECBAgQIECAAAECBAgQIECAgABaDRAgQIAAAQIECBAgQIAAAQIECBAgQIBAioAAOoVVowQIECBAgAABAgQIECBAgAABAgQIECAggFYDBAgQIECAAAECBAgQIECAAAECBAgQIJAiIIBOYdUoAQIECBAgQIAAAQIECBAgQIAAAQIECAig1QABAgQIECBAgAABAgQIECBAgAABAgQIpAgIoFNYNUqAAAECBAgQIECAAAECBAgQIECAAAECAmg1QIAAAQIECBAgQIAAAQIECBAgQIAAAQIpAgLoFFaNEiBAgAABAgQIECBAgAABAgQIECBAgIAAWg0QIECAAAECBAgQIECAAAECBAgQIECAQIqAADqFVaMECBAgQIAAAQIECBAgQIAAAQIECBAgIIBWAwQIECBAgAABAgQIECBAgAABAgQIECCQIiCATmHVKAECBAgQIECAAAECBAgQIECAAAECBAgIoNUAAQIECBAgQIAAAQIECBAgQIAAAQIECKQICKBTWDVKgAABAgQIECBAgAABAgQIECBAgAABAgJoNUCAAAECBAgQIECAAAECBAgQIECAAAECKQIC6BRWjRIgQIAAAQIECBAgQIAAAQIECBAgQICAAFoNECBAgAABAgQIECBAgAABAgQIECBAgECKgAA6hVWjBAgQIECAAAECBAgQIECAAAECBAgQICCAVgMECBAgQIAAAQIECBAgQIAAAQIECBAgkCIggE5h1SgBAgQIECBAgAABAgQIECBAgAABAgQICKDVAAECBAgQIECAAAECBAgQIECAAAECBAikCAigU1g1SoAAAQIECBAgQIAAAQIECBAgQIAAAQICaDVAgAABAgQIECBAgAABAgQIECBAgAABAikCAugUVo0SIECAAAECBAgQIECAAAECBAgQIECAgABaDRAgQIAAAQIECBAgQIAAAQIECBAgQIBAioAAOoVVowQIECBAgAABAgQIECBAgAABAgQIECAggFYDBAgQIECAAAECBAgQIECAAAECBAgQIJAiIIBOYdUoAQIECBAgQIAAAQIECBAgQIAAAQIECAig1QABAgQIECBAgAABAgQIECBAgAABAgQIpAgIoFNYNUqAAAECBAgQIECAAAECBAgQIECAAAECAmg1QIAAAQIECBAgQIAAAQIECBAgQIAAAQIpAgLoFFaNEiBAgAABAgQIECBAgAABAgQIECBAgIAAWg0QIECAAAECBAgQIECAAAECBAgQIECAQIqAADqFVaMECBAgQIAAAQIECBAgQIAAAQIECBAgIIBWAwQIECBAgAABAgQIECBAgAABAgQIECCQIiCATmHVKAECBAgQIECAAAECBAgQIECAAAECBAgIoNUAAQIECBAgQIAAAQIECBAgQIAAAQIECKQICKBTWDVKgAABAgQIECBAgAABAgQIECBAgAABAgJoNUCAAAECBAgQIECAAAECBAgQIECAAAECKQIC6BRWjRIgQIAAAQIECBAgQIAAAQIECBAgQICAAFoNECBAgAABAgQIECBAgAABAgQIECBAgECKgAA6hVWjBAgQIECAAAECBAgQIECAAAECBAgQICCAVgMECBAgQIAAAQIECBAgQIAAAQIECBAgkCIggE5h1SgBAgQIECBAgAABAgQIECBAgAABAgQICKDVAAECBAgQIECAAAECBAgQIECAAAECBAikCAigU1g1SoAAAQIECBAgQIAAAQIECBAgQIAAAQICaDVAgAABAgQIECBAgAABAgQIECBAgAABAikCAugUVo0SIECAAAECBAgQIECAAAECBAgQIECAgABaDRAgQIAAAQIECBAgQIAAAQIECBAgQIBAioAAOoVVowQIECBAgAABAgQIECBAgAABAgQIECAggFYDBAgQIECAAAECBAgQIECAAAECBAgQIJAiIIBOYdUoAQIECBAgQIAAAQIECBAgQIAAAQIECAig1QABAgQIECBAgAABAgQIECBAgAABAgQIpAgIoFNYNUqAAAECBAgQIECAAAECBAgQIECAAAECAmg1QIAAAQIECBAgQIAAAQIECBAgQIAAAQIpAgLoFFaNEiBAgAABAgQIECBAgAABAgQIECBAgIAAWg0QIECAAAECBAgQIECAAAECBAgQIECAQIqAADqFVaMECBAgQIAAAQIECBAgQIAAAQIECBAgIIBWAwQIECBAgAABAgQIECBAgAABAgQIECCQIiCATmHVKAECBAgQIECAAAECBAgQIECAAAECBAgIoNUAAQIECBAgQIAAAQIECBAgQIAAAQIECKQICKBTWDVKgAABAgQIECBAgAABAgQIECBAgAABAgJoNUCAAAECBAgQIECAAAECBAgQIECAAAECKQIC6BRWjRIgQIAAAQIECBAgQIAAAQIECBAgQICAAFoNECBAgAABAgQIECBAgAABAgQIECBAgECKgAA6hVWjBAgQIECAAAECBAgQIECAAAECBAgQICCAVgMECBAgQIAAAQIECBAgQIAAAQIECBAgkCIggE5h1SgBAgQIECBAgAABAgQIECBAgAABAgQICKDVAAECBAgQIECAAAECBAgQIECAAAECBAikCAigU1g1SoAAAQIECBAgQIAAAQIECBAgQIAAAQICaDVAgAABAgQIECBAgAABAgQIECBAgAABAikCAugUVo0SIECAAAECBAgQIECAAAECBAgQIECAgABaDRAgQIAAAQIECBAgQIAAAQIECBAgQIBAioAAOoVVowQIECBAgAABAgQIECBAgAABAgQIECAggFYDBAgQIECAAAECBAgQIECAAAECBAgQIJAiIIBOYdUoAQIECBAgQIAAAQIECBAgQIAAAQIECAig1QABAgQIECBAgAABAgQIECBAgAABAgQIpAgIoFNYNUqAAAECBAgQIECAAAECBAgQIECAAAECAmg1QIAAAQIECBAgQIAAAQIECBAgQIAAAQIpAgLoFFaNEiBAgAABAgQIECBAgAABAgQIECBAgIAAWg0QIECAAAECBAgQIECAAAECBAgQIECAQIqAADqFVaMECBAgQIAAAQIECBAgQIAAAQIECBAgIIBWAwQIECBAgAABAgQIECBAgAABAgQIECCQIiCATmHVKAECBAgQIECAAAECBAgQIECAAAECBAgIoNUAAQIECBAgQIAAAQIECBAgQIAAAQIECKQICKBTWDVKgAABAgQIECBAgAABAgQIECBAgAABAgJoNUCAAAECBAgQIECAAAECBAgQIECAAAECKQIC6BRWjRIgQIAAAQIECBAgQIAAAQIECBAgQICAAFoNECBAgAABAgQIECBAgAABAgQIECBAgECKgAA6hVWjBAgQIECAAAECBAgQIECAAAECBAgQICCAVgMECBAgQIAAAQIECBAgQIAAAQIECBAgkCIggE5h1SgBAgQIECBAgAABAgQIECBAgAABAgQICKDVAAECBAgQIECAAAECBAgQIECAAAECBAikCAigU1g1SoAAAQIECBAgQIAAAQIECBAgQIAAAQICaDVAgAABAgQIECBAgAABAgQIECBAgAABAikCAugUVo0SIECAAAECBAgQIECAAAECBAgQIECAgABaDRAgQIAAAQIECBAgQIAAAQIECBAgQIBAioAAOoVVowQIECBAgAABAgQIECBAgAABAgQIECAggFYDBAgQIECAAAECBAgQIECAAAECBAgQIJAiIIBOYdUoAQIECBAgQIAAAQIECBAgQIAAAQIECAig1QABAgQIECBAgAABAgQIECBAgAABAgQIpAgIoFNYNUqAAAECBAgQIECAAAECBAgQIECAAAECAmg1QIAAAQIECBAgQIAAAQIECBAgQIAAAQIpAgLoFFaNEiBAgAABAgQIECBAgAABAgQIECBAgIAAWg0QIECAAAECBAgQIECAAAECBAgQIECAQIqAADqFVaMECBAgQIAAAQIECBAgQIAAAQIECBAgIIBWAwQIECBAgAABAgQIECBAgAABAgQIECCQIiCATmHVKAECBAgQIECAAAECBAgQIECAAAECBAgIoNUAAQIECBAgQIAAAQIECBAgQIAAAQIECKQICKBTWDVKgAABAgQIECBAgAABAgQIECBAgAABAgJoNUCAAAECBAgQIECAAAECBAgQIECAAAECKQIC6BRWjRIgQIAAAQIECBAgQIAAAQIECBAgQICAAFoNECBAgAABAgQIECBAgAABAgQIECBAgECKgAA6hVWjBAgQIECAAAECBAgQIECAAAECBAgQICCAVgMECBAgQIAAAQIECBAgQIAAAQIECBAgkCIggE5h1SgBAgQIECBAgAABAgQIECBAgAABAgQICKDVAAECBAgQIECAAAECBAgQIECAAAECBAikCAigU1g1SoAAAQIECBAgQIAAAQIECBAgQIAAAQICaDVAgAABAgQIECBAgAABAgQIECBAgAABAikCAugUVo0SIECAAAECBAgQIECAAAECBAgQIECAgABaDRAgQIAAAQIECBAgQIAAAQIECBAgQIBAioAAOoVVowQIECBAgAABAgQIECBAgAABAgQIECAggFYDBAgQIECAAAECBAgQIECAAAECBAgQIJAiIIBOYdUoAQIECBAgQIAAAQIECBAgQIAAAQIECAig1QABAgQIECBAgAABAgQIECBAgAABAgQIpAgIoFNYNUqAAAECBAgQIECAAAECBAgQIECAAAECAmg1QIAAAQIECBAgQIAAAQIECBAgQIAAAQIpAgLoFFaNEiBAgAABAgQIECBAgAABAgQIECBAgIAAWg0QIECAAAECBAgQIECAAAECBAgQIECAQIqAADqFVaMECBAgQIAAAQIECBAgQIAAAQIECBAgIIBWAwQIECBAgAABAgQIECBAgAABAgQIECCQIiCATmHVKAECBAgQIECAAAECBAgQIECAAAECBAgIoNUAAQIECBAgQIAAAQIECBAgQIAAAQIECKQICKBTWDVKgAABAgQIECBAgAABAgQIECBAgAABAgJoNUCAAAECBAgQIECAAAECBAgQIECAAAECKQIC6BRWjRIgQIAAAQIECBAgQIAAAQIECBAgQICAAFoNECBAgAABAgQIECBAgAABAgQIECBAgECKgAA6hVWjBAgQIECAAAECBAgQIECAAAECBAgQICCAVgMECBAgQIAAAQIECBAgQIAAAQIECBAgkCIggE5h1SgBAgQIECBAgAABAgQIECBAgAABAgQICKDVAAECBAgQIECAAAECBAgQIECAAAECBAikCAigU1g1SoAAAQIECBAgQIAAAQIECBAgQIAAAQICaDVAgAABAgQIECBAgAABAgQIECBAgAABAikCAugUVo0SIECAAAECBAgQIECAAAECBAgQIECAgABaDRAgQIAAAQIECBAgQIAAAQIECBAgQIBAioAAOoVVowQIECBAgAABAgQIECBAgAABAgQIECAggFYDBAgQIECAAAECBAgQIECAAAECBAgQIJAiIIBOYdUoAQIECBAgQIAAAQIECBAgQIAAAQIECAig1QABAgQIECBAgAABAgQIECBAgAABAgQIpAgIoFNYNUqAAAECBAgQIECAAAECBAgQIECAAAECAmg1QIAAAQIECBAgQIAAAQIECBAgQIAAAQIpAgLoFFaNEiBAgAABAgQIECBAgAABAgQIECBAgIAAWg0QIECAAAECBAgQIECAAAECBAgQIECAQIqAADqFVaMECBAgQIAAAQIECBAgQIAAAQIECBAgIIBWAwQIECBAgAABAgQIECBAgAABAgQIECCQIiCATmHVKAECBAgQIECAAAECBAgQIECAAAECBAgIoNUAAQIECBAgQIAAAQIECBAgQIAAAQIECKQICKBTWDVKgAABAgQIECBAgAABAgQIECBAgAABAgJoNUCAAAECBAgQIECAAAECBAgQIECAAAECKQIC6BRWjRIgQIAAAQIECBAgQIAAAQIECBAgQICAAFoNECBAgAABAgQIECBAgAABAgQIECBAgECKgAA6hVWjBAgQIECAAAECBAgQIECAAAECBAgQICCAVgMECBAgQIAAAQIECBAgQIAAAQIECBAgkCIggE5h1SgBAgQIECBAgAABAgQIECBAgAABAgQICKDVAAECBAgQIECAAAECBAgQIECAAAECBAikCAigU1g1SoAAAQIECBAgQIAAAQIECBAgQIAAAQICaDVAgAABAgQIECBAgAABAgQIECBAgAABAikCAugUVo0SIECAAAECBAgQIECAAAECBAgQIECAgABaDRAgQIAAAQIECBAgQIAAAQIECBAgQIBAioAAOoVVowQIECBAgAABAgQIECBAgAABAgQIECAggFYDBAgQIECAAAECBAgQIECAAAECBAgQIJAiIIBOYdUoAQIECBAgQIAAAQIECBAgQIAAAQIECAig1QABAgQIECBAgAABAgQIECBAgAABAgQIpAgIoFNYNUqAAAECBAgQIECAAAECBAgQIECAAAECAmg1QIAAAQIECBAgQIAAAQIECBAgQIAAAQIpAgLoFFaNEiBAgAABAgQIECBAgAABAgQIECBAgIAAWg0QIECAAAECBAgQIECAAAECBAgQIECAQIqAADqFVaMECBAgQIAAAQIECBAgQIAAAQIECBAgIIBWAwQIECBAgAABAgQIECBAgAABAgQIECCQIiCATmHVKAECBAgQIECAAAECBAgQIECAAAECBAgIoNUAAQIECBAgQIAAAQIECBAgQIAAAQIECKQICKBTWDVKgAABAgQIECBAgAABAgQIECBAgAABAgJoNUCAAAECBAgQIECAAAECBAgQIECAAAECKQIC6BRWjRIgQIAAAQIECBAgQIAAAQIECBAgQICAAFoNECBAgAABAgQIECBAgAABAgQIECBAgECKgAA6hVWjBAgQIECAAAECBAgQIECAAAECBAgQICCAVgMECBAgQIAAAQIECBAgQIAAAQIECBAgkCIggE5h1SgBAgQIECBAgAABAgQIECBAgAABAgQICKDVAAECBAgQIECAAAECBAgQIECAAAECBAikCAigU1g1SoAAAQIECBAgQIAAAQIECBAgQIAAAQICaDVAgAABAgQIECBAgAABAgQIECBAgAABAikCAugUVo0SIECAAAECBAgQIECAAAECBAgQIECAgABaDRAgQIAAAQIECBAgQIAAAQIECBAgQIBAioAAOoVVowQIECBAgAABAgQIECBAgAABAgQIECAggFYDBAgQIECAAAECBAgQIECAAAECBAgQIJAiIIBOYdUoAQIECBAgQIAAAQIECBAgQIAAAQIECAig1QABAgQIECBAgAABAgQIECBAgAABAgQIpAgIoFNYNUqAAAECBAgQIECAAAECBAgQIECAAAECAmg1QIAAAQIECBAgQIAAAQIECBAgQIAAAQIpAgLoFFaNEiBAgAABAgQIECBAgAABAgQIECBAgIAAWg0QIECAAAECBAgQIECAAAECBAgQIECAQIqAADqFVaMECBAgQIAAAQIECBAgQIAAAQIECBAgIIBWAwQIECBAgAABAgQIECBAgAABAgQIECCQIiCATmHVKAECBAgQIECAAAECBAgQIECAAAECBAgIoNUAAQIECBAgQIAAAQIECBAgQIAAAQIECKQICKBTWDVKgAABAgQIECBAgAABAgQIECBAgAABAgJoNUCAAAECBAgQIECAAAECBAgQIECAAAECKQIC6BRWjRIgQIAAAQIECBAgQIAAAQIECBAgQICAAFoNECBAgAABAgQIECBAgAABAgQIECBAgECKgAA6hVWjBAgQIECAAAECBAgQIECAAAECBAgQICCAVgMECBAgQIAAAQIECBAgQIAAAQIECBAgkCIggE5h1SgBAgQIECBAgAABAgQIECBAgAABAgQICKDVAAECBAgQIECAAAECBAgQIECAAAECBAikCAigU1g1SoAAAQIECBAgQIAAAQIECBAgQIAAAQICaDVAgAABAgQIECBAgAABAgQIECBAgAABAikCAugUVo0SIECAAAECBAgQIECAAAECBAgQIECAgABaDRAgQIAAAQIECBAgQIAAAQIECBAgQIBAioAAOoVVowQIECBAgAABAgQIECBAgAABAgQIECAggFYDBAgQIECAAAECBAgQIECAAAECBAgQIJAiIIBOYdUoAQIECBAgQIAAAQIECBCtEojkAAAgAElEQVQgQIAAAQIECAig1QABAgQIECBAgAABAgQIECBAgAABAgQIpAgIoFNYNUqAAAECBAgQIECAAAECBAgQIECAAAECAmg1QIAAAQIECBAgQIAAAQIECBAgQIAAAQIpAgLoFFaNEiBAgAABAgQIECBAgAABAgQIECBAgIAAWg0QIECAAAECBAgQIECAAAECBAgQIECAQIqAADqFVaMECBAgQIAAAQIECBAgQIAAAQIECBAgIIBWAwQIECBAgAABAgQIECBAgAABAgQIECCQIiCATmHVKAECBAgQIECAAAECBAgQIECAAAECBAgIoNUAAQIECBAgQIAAAQIECBAgQIAAAQIECKQICKBTWDVKgAABAgQIECBAgAABAgQIECBAgAABAgJoNUCAAAECBAgQIECAAAECBAgQIECAAAECKQIC6BRWjRIgQIAAAQIECBAgQIAAAQIECBAgQICAAFoNECBAgAABAgQIECBAgAABAgQIECBAgECKgAA6hVWjBAgQIECAAAECBAgQIECAAAECBAgQICCAVgMECBAgQIAAAQIECBAgQIAAAQIECBAgkCIggE5h1SgBAgQIECBAgAABAgQIECBAgAABAgQICKDVAAECBAgQIECAAAECBAgQIECAAAECBAikCAigU1g1SoAAAQIECBAgQIAAAQIECBAgQIAAAQICaDVAgAABAgQIECBAgAABAgQIECBAgAABAikCAugUVo0SIECAAAECBAgQIECAAAECBAgQIECAgABaDRAgQIAAAQIECBAgQIAAAQIECBAgQIBAioAAOoVVowQIECBAgAABAgQIECBAgAABAgQIECAggFYDBAgQIECAAAECBAgQIECAAAECBAgQIJAiIIBOYdUoAQIECBAgQIAAAQIECBAgQIAAAQIECAig1QABAgQIECBAgAABAgQIECBAgAABAgQIpAgIoFNYNUqAAAECBAgQIECAAAECBAgQIECAAAECAmg1QIAAAQIECBAgQIAAAQIECBAgQIAAAQIpAgLoFFaNEiBAgAABAgQIECBAgAABAgQIECBAgIAAWg0QIECAAAECBAgQIECAAAECBAgQIECAQIqAADqFVaMECBAgQIAAAQIECBAgQIAAAQIECBAgIIBWAwQIECBAgAABAgQIECBAgAABAgQIECCQIiCATmHVKAECBAgQIECAAAECBAgQIECAAAECBAgIoNUAAQIECBAgQIAAAQIECBAgQIAAAQIECKQICKBTWDVKgAABAgQIECBAgAABAgQIECBAgAABAgJoNUCAAAECBAgQIECAAAECBAgQIECAAAECKQIC6BRWjRIgQIAAAQIECBAgQIAAAQIECBAgQICAAFoNECBAgAABAgQIECBAgAABAgQIECBAgECKgAA6hVWjBAgQIECAAAECBAgQIECAAAECBAgQICCAVgMECBAgQIAAAQIECBAgQIAAAQIECBAgkCIggE5h1SgBAgQIECBAgAABAgQIECBAgAABAgQICKDVAAECBAgQIECAAAECBAgQIECAAAECBAikCAigU1g1SoAAAQIECBAgQIAAAQIECBAgQIAAAQICaDVAgAABAgQIECBAgAABAgQIECBAgAABAikCAugUVo0SIECAAAECBAgQIECAAAECBAgQIECAgABaDRAgQIAAAQIECBAgQIAAAQIECBAgQIBAioAAOoVVowQIECBAgAABAgQIECBAgAABAgQIECAggFYDBAgQIECAAAECBAgQIECAAAECBAgQIJAiIIBOYdUoAQIECBAgQIAAAQIECBAgQIAAAQIECAig1QABAgQIECBAgAABAgQIECBAgAABAgQIpAgIoFNYNUqAAAECBAgQIECAAAECBAgQIECAAAECAmg1QIAAAQIECBAgQIAAAQIECBAgQIAAAQIpAgLoFFaNEiBAgAABAgQIECBAgAABAgQIECBAgIAAWg0QIECAAAECBAgQIECAAAECBAgQIECAQIqAADqFVaMECBAgQIAAAQIECBAgQIAAAQIECBAgIIBWAwQIECBAgAABAgQIECBAgAABAgQIECCQIiCATmHVKAECBAgQIECAAAECBAgQIECAAAECBAgIoNUAAQIECBAgQIAAAQIECBAgQIAAAQIECKQICKBTWDVKgAABAgQIECBAgAABAgQIECBAgAABAgJoNUCAAAECBAgQIECAAAECBAgQIECAAAECKQIC6BRWjRIgQIAAAQIECBAgQIAAAQIECBAgQICAAFoNECBAgAABAgQIECBAgAABAgQIECBAgECKgAA6hVWjBAgQIECAAAECBAgQIECAAAECBAgQICCAVgMECBAgQIAAAQIECBAgQIAAAQIECBAgkCIggE5h1SgBAgQIECBAgAABAgQIECBAgAABAgQICKDVAAECBAgQIECAAAECBAgQIECAAAECBAikCAigU1g1SoAAAQIECBAgQIAAAQIECBAgQIAAAQICaDVAgAABAgQIECBAgAABAgQIECBAgAABAikCAugUVo0SIECAAAECBAgQIECAAAECBAgQIECAgABaDRAgQIAAAQIECBAgQIAAAQIECBAgQIBAioAAOoVVowQIECBAgAABAgQIECBAgAABAgQIECAggFYDBAgQIECAAAECBAgQIECAAAECBAgQIJAiIIBOYdUoAQIECBAgQIAAAQIECBAgQIAAAQIECAig1QABAgQIECBAgAABAgQIECBAgAABAgQIpAgIoFNYNUqAAAECBAgQIECAAAECBAgQIECAAAECAmg1QIAAAQIECBAgQIAAAQIECBAgQIAAAQIpAgLoFFaNEiBAgAABAgQIECBAgAABAgQIECBAgIAAWg0QIECAAAECBAgQIECAAAECBAgQIECAQIqAADqFVaMECBAgQIAAAQIECBAgQIAAAQIECBAgIIBWAwQIECBAgAABAgQIECBAgAABAgQIECCQIiCATmHVKAECBAgQIECAAAECBAgQIECAAAECBAgIoNUAAQIECBAgQIAAAQIECBAgQIAAAQIECKQICKBTWDVKgAABAgQIECBAgAABAgQIECBAgAABAgJoNUCAAAECBAgQIECAAAECBAgQIECAAAECKQIC6BRWjRIgQIAAAQIECBAgQIAAAQIECBAgQICAAFoNECBAgAABAgQIECBAgAABAgQIECBAgECKgAA6hVWjBAgQIECAAAECBAgQIECAAAECBAgQICCAVgMECBAgQIAAAQIECBAgQIAAAQIECBAgkCIggE5h1SgBAgQIECBAgAABAgQIECBAgAABAgQICKDVAAECBAgQIECAAAECBAgQIECAAAECBAikCAigU1g1SoAAAQIECBAgQIAAAQIECBAgQIAAAQICaDVAgAABAgQIECBAgAABAgQIECBAgAABAikCAugUVo0SIECAAAECBAgQIECAAAECBAgQIECAgABaDRAgQIAAAQIECBAgQIAAAQIECBAgQIBAioAAOoVVowQIECBAgAABAgQIECBAgAABAgQIECAggFYDBAgQIECAAAECBAgQIECAAAECBAgQIJAiIIBOYdUoAQIECBAgQIAAAQIECBAgQIAAAQIECAig1QABAgQIECBAgAABAgQIECBAgAABAgQIpAgIoFNYNUqAAAECBAgQIECAAAECBAgQIECAAAECAmg1QIAAAQIECBAgQIAAAQIECBAgQIAAAQIpAgLoFFaNEiBAgAABAgQIECBAgAABAgQIECBAgIAAWg0QIECAAAECBAgQIECAAAECBAgQIECAQIqAADqFVaMECBAgQIAAAQIECBAgQIAAAQIECBAgIIBWAwQIECBAgAABAgQIECBAgAABAgQIECCQIiCATmHVKAECBAgQIECAAAECBAgQIECAAAECBAgIoNUAAQIECBAgQIAAAQIECBAgQIAAAQIECKQICKBTWDVKgAABAgQIECBAgAABAgQIECBAgAABAgJoNUCAAAECBAgQIECAAAECBAgQIECAAAECKQIC6BRWjRIgQIAAAQIECBAgQIAAAQIECBAgQICAAFoNECBAgAABAgQIECBAgAABAgQIECBAgECKgAA6hVWjBAgQIECAAAECBAgQIECAAAECBAgQICCAVgMECBAgQIAAAQIECBAgQIAAAQIECBAgkCIggE5h1SgBAgQIECBAgAABAgQIECBAgAABAgQICKDVAAECBAgQIECAAAECBAgQIECAAAECBAikCAigU1g1SoAAAQIECBAgQIAAAQIECBAgQIAAAQICaDVAgAABAgQIECBAgAABAgQIECBAgAABAikCAugUVo0SIECAAAECBAgQIECAAAECBAgQIECAgABaDRAgQIAAAQIECBAgQIAAAQIECBAgQIBAioAAOoVVowQIECBAgAABAgQIECBAgAABAgQIECAggFYDBAgQIECAAAECBAgQIECAAAECBAgQIJAiIIBOYdUoAQIECBAgQIAAAQIECBAgQIAAAQIECAig1QABAgQIECBAgAABAgQIECBAgAABAgQIpAgIoFNYNUqAAAECBAgQIECAAAECBAgQIECAAAECAmg1QIAAAQIECBAgQIAAAQIECBAgQIAAAQIpAgLoFFaNEiBAgAABAgQIECBAgAABAgQIECBAgIAAWg0QIECAAAECBAgQIECAAAECBAgQIECAQIqAADqFVaMECBAgQIAAAQIECBAgQIAAAQIECBAgIIBWAwQIECBAgAABAgQIECBAgAABAgQIECCQIiCATmHVKAECBAgQIECAAAECBAgQIECAAAECBAgIoNUAAQIECBAgQIAAAQIECBAgQIAAAQIECKQICKBTWDVKgAABAgQIECBAgAABAgQIECBAgAABAgJoNUCAAAECBAgQIECAAAECBAgQIECAAAECKQIC6BRWjRIgQIAAAQIECBAgQIAAAQIECBAgQICAAFoNECBAgAABAgQIECBAgAABAgQIECBAgECKgAA6hVWjBAgQIECAAAECBAgQIECAAAECBAgQICCAVgMECBAgQIAAAQIECBAgQIAAAQIECBAgkCIggE5h1SgBAgQIECBAgAABAgQIECBAgAABAgQICKDVAAECBAgQIECAAAECBAgQIECAAAECBAikCAigU1g1SoAAAQIECBAgQIAAAQIECBAgQIAAAQICaDVAgAABAgQIECBAgAABAgQIECBAgAABAikCAugUVo0SIECAAAECBAgQIECAAAECBAgQIECAgABaDRAgQIAAAQIECBAgQIAAAQIECBAgQIBAioAAOoVVowQIECBAgAABAgQIECBAgAABAgQIECAggFYDBAgQIECAAAECBAgQIECAAAECBAgQIJAiIIBOYdUoAQIECBAgQIAAAQIECBAgQIAAAQIECAig1QABAgQIECBAgAABAgQIECBAgAABAgQIpAgIoFNYNUqAAAECBAgQIECAAAECBAgQIECAAAECAmg1QIAAAQIECBAgQIAAAQIECBAgQIAAAQIpAgLoFFaNEiBAgAABAgQIECBAgAABAgQIECBAgIAAWg0QIECAAAECBAgQIECAAAECBAgQIECAQIqAADqFVaMECBAgQIAAAQIECBAgQIAAAQIECBAgIIBWAwQIECBAgAABAgQIECBAgAABAgQIECCQIiCATmHVKAECBAgQIECAAAECBAgQIECAAAECBAgIoNUAAQIECBAgQIAAAQIECBAgQIAAAQIECKQICKBTWDVKgAABAgQIECBAgAABAgQIECBAgAABAgJoNUCAAAECBAgQIECAAAECBAgQIECAAAECKQIC6BRWjRIgQIAAAQIECBAgQIAAAQIECBAgQICAAFoNECBAgAABAgQIECBAgAABAgQIECBAgECKgAA6hVWjBAgQIECAAAECBAgQIECAAAECBAgQICCAVgMECBAgQIAAAQIECBAgQIAAAQIECBAgkCIggE5h1SgBAgQIECBAgAABAgQIECBAgAABAgQICKDVAAECBAgQIECAAAECBAgQIECAAAECBAikCAigU1g1SoAAAQIECBAgQIAAAQIECBAgQIAAAQICaDVAgAABAgQIECBAgAABAgQIECBAgAABAikCAugUVo0SIECAAAECBAgQIECAAAECBAgQIECAgABaDRAgQIAAAQIECBAgQIAAAQIECBAgQIBAioAAOoVVowQIECBAgAABAgQIECBAgAABAgQIECAggFYDBAgQIECAAAECBAgQIECAAAECBAgQIJAiIIBOYdUoAQIECBAgQIAAAQIECBAgQIAAAQIECAig1QABAgQIECBAgAABAgQIECBAgAABAgQIpAgIoFNYNUqAAAECBAgQIECAAAECBAgQIECAAAECAmg1QIAAAQIECBAgQIAAAQIECBAgQIAAAQIpAgLoFFaNEiBAgAABAgQIECBAgAABAgQIECBAgIAAWg0QIECAAAECBAgQIECAAAECBAgQIECAQIqAADqFVaMECBAgQIAAAQIECBAgQIAAAQIECBAgIIBWAwQIECBAgAABAgQIECBAgAABAgQIECCQIiCATmHVKAECBAgQIECAAAECBAgQIECAAAECBAgIoNUAAQLPIvCB1lr8E8sHW2s/NnLHv9Zai39i+fWRr7EaAQIECMwTGB6r/8bIJv6gtfYbp3Xj3/G/LQQIECBAgAABAgQIbERAAL2RjrAZBAh0E4jwIgLm+OdDp9D5HDz3eJNz0BEhx2+eQo9z8NGjfW0QIEDgGQTiS8A4TkfI/DOnY3X8715LfGEYXx7GcTr+23G6l6x2CBAgQIAAAQIECEwUEEBPBLM6AQKbE4gQ48OnsDmCjJ5h89idjVA6Ao4vvQQqXywaffdfTkHO2G1+pvXWONd9tLX22WLUqL3Xirfh3tvH5zPq9OjLeQRuHBci/Dz/isIvKF4PnD9yOlb1DJvH1NQWjtNjtnO4zj9trX1y6os6rf/PXtqJ99/7Unlu/JsdfjlVWQNz+/58rDsfA4df3B/l1wmVdTW3X6peF/UQn4Wxi2uFsVLWI0CAwM4E1rgp3xmJzSVAYCcCEfj9wil83tomRxAYYfTnVtwwN0O3sdc4131hI7X440VfgIwp9We5qbxnEeF03Ix/+fTvo4Qx9/Y5vhT82OnzUfEF4a1ti+P0509fGo6p34p1KsNHAfTyHn/WAPqe3DmMPh8D9/rFnGuu8Z8PAfR4q/Oaz3itMF3JKwgQ2J3AGjflu0OxwQQIbFYgRjt//BRmjJ3DuXJn4kbrMy/zTX96hVDQzVBtAP31CfOKZ9ZkjICOYG2LiwD6rb1S8WXVWrURv0yJ4HnsPM5rbdfl+8QI9Qii1zhOT91HAfRUsbeuX3luFECP67/zcbDqF2TjtvLVtSrras72Vr5GAL1c/8jXCst1tECAwG4EBNC76SobSuCpBSJsjp8hR/i8x2WNINrNUF0AHUFbjIDewhKj7n9xCxtyZRsE0Lc7Jo4R0XfxhdX5oacb7caHmxW/Tonj9ZZGOz/c6NOXhOG/pWknBNBjeu7+OpXnRgH09P7bwy8TYq8q62q6au0rBND9/I90rdBPRUsECOxGQAC9m66yoQSeViBC5wgz9jDi+VEnxYXjJ5Km5nAzVBdAx9zPEbptYYkai2k4trgIoMf1SgTRcZzY2/QcMafzp3Yw4vlRL8QXAOG/hV8SCKAf9dbjv1eeGwXQj/vn1hpb/mWCAHpavwqgp3mNXXuv1wpj9896BAgcUEAAfcBOtUsEDiIQYUYEe2s/qGoNvrgYj1GqPUc6Vt5kr2G25D2yz3VbmX7jbLTVaTgE0OOrOMLnmIM3poXY+rL3X6jc8o0AOo7TlV8ECKCXV3/luVEAvbz/1vgF2ZytrKyrOdtb+RoBdJ7+nq4V8hS0TIDAbgSyb8p3A2FDCRDYlECMJo2RdEcY9XwLNi4aI9zoNcrOzdDtEs4818UXJF/Z1Kfn9dAyRnBubRFAT++RjC+rpm/F7Vcc+YvC2Ov4kjC+0IkHQlUsAujl6pXnRgH08v47txCfxfhSbs2HO9/b+sq66qe6TksC6HznOEfFuarnwJb8rfYOBAg8nUDmTfnTYdphAgS6CGxpOoMuO/Sgkbih6jHnqJuh29CZ57r4omRrc5PHDchPr1G8E99DAD0R7LR67y+r5m3FW1/1DF8Unvc6viysCL4E0MurtfLcKIBe3n+XLWzlS7nKuuqvmtuiADrX99z6Vq8V1tl770KAwC4EMm/KdwFgIwkQ2JTAs4XPZ/weD45zM1QTQH91ow9b+9nCUZu3ekIAvexwWxWCXtvqLX7xskz38asrflkggH7cL4/WqDw3CqAf9c68v2c+T2PsFlXW1dht3Mp6Auh1e2JL1wrr7rl3I0Bg8wIC6M13kQ0k8DQCzxo+9wqh3QytH0B/oLUWAfQWl4qw7JGDAPqR0OO/b+HG8pmP1T2+LHzcy2+uIYCeonV93cpzowB6ef/da2Htz+NwWyrrKle1f+sC6P6mj1qs/Gw82jZ/J0DgiQUE0E/c+XadwIYEnjnQGHbDkgtGN0PrB9Ax9UaMBN3iEvMBxijoLS0C6D69URlCO1a/PhVH9MEaiwB6uXLluVEAvbz/HrUQ57pwXvthoZV19chka38XQNf0SDwLZA8PMq7R8a4ECJQICKBL2L0pAQIDAYHGq+UwN9xwM7R+AB0PH4yHsG11iXmgt/RAGgF0v0qpCKEdq9/sv15z9z+qCAH0I6HHf688NwqgH/dPjzUqQujKuuphtmYbAug1tV99r4prhbq99c4ECGxeQAC9+S6ygQQOLRAPsYpQw7L8gtHN0LoB9Jan3zhLbG30iwC635EuRvtFuBXByxpLZRC6xv7NeY81buwr3dcK2efYT3lN5blRAD2lp5atu3YIXVlXy6TWf7UAen3z8zuufa1Qt6femQCBXQgIoHfRTTaSwCEFYuRoXMD/2CH3bvlOTX2InJuhdQPoPXx5srVpOATQy48LwxbW6t8Pt9a+0HfTD9HaGjf2AujlpVJ5bhRAL++/KS2sGUJX1tUUky2sK4Cu7YU1Pxe1e+rdCRDYvIAAevNdZAMJHFZg69MXVMNPvWB0M7RuAB2BXARzW19+vGBuzFsmAuj+1ZI9SjVG+sex2heF1/tu6nF6agUIoKeKvXX9ynOjAHp5/01tIfszed6eyrqaalK9vgC6ugday75WqN9DW0CAwC4EBNC76CYbSeBwApU31XvCjIeHxDQKYxY3Q+sF0BHGfX1Mp2xgnTWmCRi7mwLosVLj14tRuPFriay5vn1R+LgvphynH7f26hqV58qjBBaV50YB9NSK77P+3GdpTHn3yrqasp1bWFcAvYVeaG1rzwXZhoqtIEBgVQEB9Krc3owAgdNIuq8aUTe6FsZOxeFmaL0Aeg/Tb5w1vthae210teWuKIDO8c0KWz71Mnr+4zmbfLhWxx6np+64AHqq2FvXrzw3CqCX99/cFrKfgVBZV3NNql4ngK6Sf/V9s64VtrF3toIAgV0ICKB30U02ksChBCpvqPcIOfbC3c3QegF0PDgzQui9LFuZhkMAnVcxvUc26atpfZU1H3fl+dII6Gk1cG1tAfRywyUt9PC/9f6uucb3zNjr2HOLzj/jbaeu2ftaYer7W58AgScXEEA/eQHYfQIrC8TUBUY/T0cfcxPlZmi9ADqm39jTnLgxAjpGQlcvbirzeqB3WGjqjel9lTHdjQB6ej9cvqLy3Djm3P1oDytr4NG2bf3vMTVR/DohpirqvVTWVe99yW5PAJ0tPL793tcK49/ZmgQIEGitCaCVAQECawrEz7njZ92WaQJxExWjFu4tboZu6/Q818WDB+MBhHtatvKzSwF0XtWMOUaMfXeB11ipV9fr2Qfnliv74ihBReW5UQA977PU81VZ01BV1lVPnzXaEkCvoTzuPTLOU+Pe2VoECBAQQKsBAgRWFjCqbj74oxtZN0PrBNB7nBc3Rn/FNBzViwA6twd6zEPsVyrL+qj3KGgB9LL+iFdXnhsfnbfH7F1lDYzZvj2sk/EroMq62oP5cBsF0NvqsR7XCtvaI1tDgMBuBHqOCtvNTttQAgRKBD7YWosAunqJ0TBfepnDN0YBxEXxtSW29QMvN64faq3FiNf47+rl0QW8m6HbPdTzXBdTyGyhHqbWY8YN+NRtqAyg4/P++akbfLH+T536PvZji0uPh25tbX7z8/E65liOf4ZLHKfjn184Hae30Ce9R5dVho9GQC+vKAH0csMeLcSXsPErsp5TcbjmGt8zj65fL1va+7XCj57OTVu9VjjKsX18BVqTAIHNCPS8Kd/MTtkQAgQ2KVA9/UYEGRHQREAwdYmLyE++BNbVF5P3Ri24Gbrdq73OdVv5EmVq/cb6nz7V/5zX9npN5U3l1BvgR/scX0x9bAPHhOF2Lv2peXyxEl+wbGGZeryObY9fJ0S/VC89v+wRQC/vzcpzowB6ef/1aqH3ObCyrnqZrNXO1POva4XcnpnaH7lbo3UCBJ5KoNdN+VOh2VkCBGYJVF6s95oDNy6KY4Tg2iNgY+RfjNqOG6hbI3gqfWcVxIov6nWu2+P0G2fm3iMz53TfkW4qz/sf+xRzgm/hoZRLp1rZyujnJdNYfPR0jJ5Tn71es/SLgOF2CKCX90rluXHvAfTYkZJx/IsvaON4GL9IiP/e4hKjoOcMQri2L1V1FdezS3/Ns3bfxLnp8hcs97bBtUJuDy29VsjdOq0TIHBogV435YdGsnMECHQR+HpRSNP7p5dxoxWBU/Zo6PNPz2Okwpgbprjh6x2CxQ3W2kuMUp9yozJm+25NtTLmtcN19j6HefW8f0e8qYz6iM9efFZ6f/6m1mesH3N9z/mZ+VZGPy8Jn89eWwihewVdAug5n4JXX1MVFMZWPEsAfdlLcUyMX41t4RcJw23rNRgh2qyqq7FfCiz/5NS14Foh337utUL+lnkHAgQOLSCAPnT32tqacR8AACAASURBVDkCmxGoDDd6/+zyjNp7tOB5TuoY6Rzh8xaW/1ewET1u2DM2u7KGe+1P1mdh7PYd9aYy9r9y34b+cz8/lUHneft7zGF9bqt6yqde+1LZL0cJuqqCwmcOoM+fwwig41ppC1/Onbdp7jHy8jxXVVdH+Vzeu26oPJ9mT09RuW89rhXGXu9ZjwABAlcFBNAKgwCBNQQqL7iyLtbjhipuQJb81DRG+sbFbvycsveo3x79KoB+U7E60OrRn9XTcFQeB7JvKqN/qgKJHjeVVb9QOW97z2krzm1W9kccz+MXB0sXAfRSwdrPZY+wc+81EF/exq/GllwrLa+CN1voNQq66viSdU3b03hpW64Vlgo+fn2PY9Pjd7EGAQIELgQE0EqCAIE1BPZ+A3XLaM5D6SJo+fJplPOYqTXW6J9b7yGAflNm79NvnPek19QAc+ry6DeVMdovgpbKZc4UFkeasmJoX/2rhR6ftaOeO9f8jFQFhbGPPUKeI9RAjy/se9ZMj89mVV0JoHtWwlvbWuPL6i1cKzxDHeVWitYJEJglIICexeZFBAhMFPil1to/bq39RGvtfRNfu3T1XqNdbm3Ho5vDmI91OJ/znPlZlxrMfb0A+nW5uHmOEaJHWHpNDTDH4ugB9BbqZM5NZYTmlXO1ztnmsfXXe6qkse8b6835MuCy/UfnlynbM3XdzH6Zui1L1q8KCmObBdBv9lx8IRRf5G5hOo4e14VVdXWUz+W9z7RrhSVHvHGvfYY6GidhLQIEVhUQQK/K7c0IEGitve0URMcDMCKQjn/O/33t/xv+/e0zBHs/hPByE+Jm6qsXN1Vbn1pjLKMA+nWpLYwQHdtnj9brNTXAo/e59vej31TGPldPZTH1prJ6lHCY9RiNeKseK2uuR8glgJ5zpHn1NVVBoQD6rX23hZGfsVU9rgur6mrqMX75J2j9FiqP22uMgA7RuG+I82/V8gx1VGXrfQkQuCMggFYeBAjsSeCHr4TWw4D6VqD9O6eRSFmjjz91upDcy9QaY/tcAP26VOYI0ZiGZe2bkMzA715tPcNNZVUocXafelNZPbd5xtzPlzVYdaPfY851AfTYs9Xt9So/k0ZAv7VfMs+nU6pl6S8Uqupq6jF+islW1nWtkN8Tz1BH+YregQCByQIC6MlkXkCAwA4FYuR0TP3x7dbat3a4/VWbLIB+XT7LIb4QiSkxYpqANZelN95zt9VN5Vy58a+bOsVKdRj02mmKovF7OH3N+IIwgvaKZemXPQLo5b1WFRTGlgug39p/W/jVRWzV0i+/qurqGYJD1wrLj3uPWniGOnpk4O8ECBQICKAL0L0lAQIEdiKQFbze2/0eN+w9eTN/Mhw3wBEYxgjNNZelN95zt/UZbiorPjPD/pjy+dnCnNVrXIdW1t3SgF0APfdo8+brqoJCAfTtvqus6+FWxbRvc38ZV1VXzxAcVh6z15qCo3q6rinXCsuPwlogQIDASWCNC3/YBAgQILBPgYowbWsXxZkPMTuPRK6YImDJjffcaj76TeUWRvZN+fxkfrkypkbW/CJkrWNZhFkxz3os8e8vtdYi0Ji7VAZ1Rwm6qoJCAfTtqt/CsTK2bsmvgarq6iify3vHRNcKc88Y41835VphfKvWJECAwAMBAbQSIUCAAIFbAmuFNsP339pFceYolfPP8yumCFhy4z33E3P0m8rKsPDcJ1OmfKiou2HtTJ0uZG7dxeu+8vKT+w8uaCDmc45/Yom5/mMZ/n9LQuZ7m1VZU0cJuqqCwujXHuezo9ZA5pe7Yz/qS74Eq6qro3wu7/XR0a8Vqp+9EPY/O/iydOznxXoECBBYLCCAXkyoAQIECBxW4NkD6MyboBgdGTcAsVSMRP3cafTXmsWb6floP7J/VhvTWcRI9vh35TLlum5pKLt0P3uEc2O34VbYFZ/DGLUc//zmqbE1guWx233U8HHs/vdYryooFEDf773K88F5y+JzH78GmrNU1ZUAek5vjX+Na4XxVtYkQIDAZIEpNyqTG/cCAgQIENi1wC+fbs5+orUW/8SN2vDf8d/v6ryHa4ZSjzY9c4Top0/zP8c2VMzFu+TG+5Hbrb9XBg7ZN5XVD/ML8+GXGmP6qOILpuF2rXkNGrUXn7Nz2HyeJmOMU+U6Aujl+lVBYWx5j/PZkWugYvqpy4qaOxK0qq4E0MuPCfdayL5W2MLI/6nXCrniWidA4KkE1rz4fypYO0uAAIEnEXj3KZS+FVBfC61j3VsjRXvcsPeiz7w5vnw4WcXN7NIHpE11PmIAHXUcX1R8dCpGwvpTRrVX9kXseowyjulCLPcFjhw+rtX3FcfW8771OJ8duQYyv+QdW19zpwKqqqsISM/TAI3dx+z1okZ7LpXnp6wAeq/XCj37VVsECBBoAmhFQIAAAQIVAj94Y0R13Fj9bsUGXbxnzBcbUxRkLZfn34qQYUpg2cPhaDeVsT8xmikeqLWFZcq83tVzUGbd5G+hH3puQ8Vx4bz9RxlpWRUUhqMA+v6nofKccN6yuefByrrqeYzp0VbvPKGyLjLOTXu+VuhRH9ogQIDAGwK9TxhoCRAgQIDAEQQyg59rDz6quOFaexRqxT6ea7HXTWWEzTFn90cWPtQu4zOypwcQHiXczOjHYZuZx6FH236UPqoMCgXQj6qsteqpgOZOR1BZV49V112jd57gWiG3/6ZcK+RuidYJEHg6gd4njKcDtMMECBAgcEiBGBX1c4NR2m/vuJe3fvL79YKH2M2d/3IOR+VNZYTtn5+z0a21D51eF6Piqx8yeGsXpoYo1eHJUcLNmSU1+mUC6NFUN1esrHUB9OP+q+yf89bNuR/ewnY/1l1njTl+97bMtUJev029VsjbEi0TIPCUAr1PGE+JaKcJECBA4PACP/xgrutbD2r8kSsyt0LfigfZDR+GmN2JlTeV2ftW3f7UeUwz5zcfY7H2/ONjtmmL6wigl/dKZVAogH7cf5U1ft66OV/EVtbVY9V11+idJ7hWyOu/qdcKeVuiZQIEnlKg9wnjKRHtNAECBAgQuCEQI6fPD2KMkPpdrbX/fGPdv9dai5Gh5wc6/tAKqmtOw+GmMqdD/+D0QL/499il+mfvPYK5sfu65/Uqw7mjjFKvDAp71PnRayAe4Bpz6Vcuc/qpsq4qra69d+88wbVCXg/H9eiUa4W8LdEyAQJPKdD7hPGUiHaaAIHuAj/ZWntna+33W2vf6N66BgnsQ+B9gzD6HEq//yLQPofbw5D7vRN3b635AN1UTuyYkatPfYhWzGMdI6ArlzmBT+X2Vr330cPHNVwrg8IedX70GtjCeWHOqNDKulrjczPlPXrnCVuoiSn7v5d1p14r7GW/bCcBAjsS6H3C2NGu21QCBDYsMLzh+rNTEB3z40YgHf+c//va/zf8+/c2vI82jUCWwDsugutzeH1rmpB/3VqLG5PsxU1ljvDULxC20A9Ttznk9hj4LB1FfPTwMecT8WqrlXUjgH7cwzGvflzLVS5zPqeVdVVpde29e+cJWzhHbc24x/bMOe/2eF9tECBA4A2B3icMtAQIEOgh0Oum+4+vhNbDgPpWoP1HPXZCGwQIvCLgprJ/QcyZw3sL/TDn+nOPgc+cYGtYJb3OhXMqb+m2z3nPjNdU1o0AelyPVk8JNKfWK+tqnOp6a805nt/bui2co9bTW+ed5lwrrLNl3oUAgacS6H3CeCo8O0uAQJpA5U137FSMnP6t1tovt9b+a9peapjAcwn85dbav7oyrYhrkXl1EPN3x8Ozps7n+OHWWjzwsnKZ0+d7DHzmBFsC6L6VWVk3AuhxfVkdQM+ZmqCyrsaprrfWnOO5AHq9/pl7rbDeFnonAgSeRqD3CeNp4OwoAQKpAtUB9HDn4sLtM621L7bW4r8tBAj0FXg0Rcjw75cPdOy7JftqLcLn35ixyVs4vs65/txj4COAnlGgnV9SWTcC6HGd+ZWXa6wPjls1Za1fb61FX01ZKutqynause6c4/m97TICum+vzb1W6LsVWiNAgEBrrfcJAyoBAgR6CGwhILm2HxH2xI3Kl0//njrysIeNNggQeF3g3afR1LcC6msPaIx1Y87RvS+/uGDe7i0cX+dcf+4x8BFA13/SKutGAD2u/yv7KLZQAD2un26tNed4LoBeZj721UuuFca+h/UIECAwWqD3CWP0G1uRAAECdwS2EJCM6aAIpOOf3zzdwMwZjTjmfaxDgEA/gR98+VXDtXB6OLr61t/f2W8zZre09IZyC8fXOdef1SHVnA4TQM9R6/uayroRQI/ry8o+EkCP66N7a805ngugl7s/amHptcKj9v2dAAECkwV6nzAmb4AXECBA4IrAR1trn92pzHmE9Hm0tFHSO+1Im03gisB7B+H1valD3n+x3vs6afa4oRRAd+qMEc0IoEcgJa9SGW4KoMd1bmUfCaDH9ZEAernTmi30uFZYc3u9FwECTyIggH6SjrabBHYmcKT5355p2o5fa619vbX2+6d/zv89/P++s7NatLkEegi87eLhi4+mDRn+/e2nBw1GmNXjVxYC6B49Oq4NAfQ4p8y1KsNNAfS4nq3sIwH0uD4SQC93WqOFGPTS61phje31HgQIPJmAAPrJOtzuEtiRQPVT0bOojhxIj+mzbz8IqK+F1hFoG0meVZHa3brAu1pr322tfb/ThgqgO0GOaEYAPQIpeZXKcFMAPa5z47xfOTd/PGT6tXGb+sZalXU1cVPTV++dJxxpEEo6/uANoo5j5LPr5TXVvRcBApMEep8wJr25lQkQIHBHoPqp6Gt1TgTSX3p5AnxcOPYY3bjWdl97nzEB9Nzti/DtWjgdYdpvz23U6wg8ocDPtdZ+/mJE9uX81z+U7DLn+nOPgY8AOrmQRjRfWTcC6BEd1FrLvHYYswVzPqeVdTVmn9ZcZ87x/N72CaCn9V4Ezp9Y8GDiae9mbQIECCwQ6H3CWLApXkqAAIFXBD718i3+x5/M5GunhxmeA+m97X7FTWSPG/y9OdteAtkCMWf15TQhl/NaX3tQY8yRPWaJ104dpbXHwGdOsDX0qxytvnTbx9TBGutU1k2P89Mz1EDFtcOw9ubUemVdrfG5mfIevfMEAfR4/c+dwuep59Px72BNAgQIdBTofcLouGmaIkDgyQU+2FqLUdDPusTFZIyK/syORkZX3ET2uMHvUWM/01r7k8Eo7e/1aFQbBHYm8I47c10PA+1/0Vr7rYn7tsfAZ06wJYCeWBgPVq+smx7np6MH0B9orX21b5dPbm3O57SyribvYPILeucJAujHHRbBc9RtDFyxECBAYDcCvU8Yu9lxG0qAwC4E4qYkbk6efYmpOSKIjgvOLS/PGkBfu4H+4wdzXd96UOMfbbmDbRuBQoFfba399Zdj4eV0Ie8p3KZHbz0n2Bq2efTw8ZFfj79XBoUC6Mc9uIWwMeZ/ji/8pyyVdTVlO9dYt3eesIWaWMNtzntE4BzHFcHzHD2vIUCgXKD3CaN8h2wAAQKHEqi8+d4iZFxwxgNGfn2LG1c0j2OPG/ylnDFVTEwZ02OJkdPnua4jpP4frbV/cKPhn2ytxVQJsV685k97bIA2COxMIB7SeBlKD0db3/rveE32dbAAur6YKoPCHuenyuugpfU7pvd7nj/HvN+1deb0U2Vdzd3PrNf1Po4KoO/31E8LoLNKWbsECGQL9D5hZG+v9gkQeC6BeCp6jIKufDr6FsW3+qTrZx0B/YWXaVI+nFQoMeo9vnS4tlyOvP7GIIw+h9K/dxFoX3uQ4zeTtl2zBLYucC+cjr9dzoN9/v8i9B6zLA3wjh4+jjFcuk5lUDgn2Lzc36PXwBae9zEn0Kusq6Wfid6v750nCKDv99DS80rv/tceAQIERgv0PmGMfmMrEiBAYKRA5c3XyE0sWS3miI6b25ieYyvLMwbQ8eVIhLpZy6OfBveYpua7F8H1Oby+NU3I/5zxALksH+0SqBB49ymcvhVQn0dk/8fW2r9bsIGV57+jhByVQaEA+nHxV/bPeevm3A9vYbsf666zxhy/e1smgL7fb/FryPjSxEKAAIHdCfQ+YewOwAYTILB5AaOg73dRjI7dytzQzxhAf7S19tnET1EEWfeebh7vHduw5hJfevzsmm/ovQg8qcCvvEyt809OU4y8c2UDAfRycAH0Y8OK64bhVs09n1UF0Ef5XAqgH3827q2xpWv/ZXvi1QQIPJWAAPqputvOEtitQExvENMcWK4LbOVCtOJGsscN/pK6ypx+Y8yNcdVnY85Plqc6//lT0D0ckR2jzSvqbOq2W59Ab4H33pjr+nIU9vsv1ot54ucsRwm6qoLCMO9xfjryKPgtjHSNKc3il0ZTl6q6OsrnUgA9teJeXT+eBRPHFwsBAgR2JSCA3lV32VgCTy2QGfQdAXYLIXRFMNjjBn9J/0cgmjVH+ZgbzewpQG7ZfOJlvz+9BG7Ea2+FE4+mCLkMrM9TiXxnxHtahcDRBN52MZf1o2lDzn//tdbaPz8ARlVQKIB+XDxbmP95zHn22p5U1dXc7X3cG9tZo/KLiTHB7uXzN6rk1hgIULVv3pcAgYMKCKAP2rF2i8ABBSJo+8rLdBNx4We5LlAdQj9bAJ09+jimuRgzx3d8Lj648odi7qixKZvZ+yb026e5rm8F1Nce0Bjr3psCZcr+WJcAgfUFqoJCAfTjvu7xDIPH73J/jblfYlfVlQB6aY/ff/2YADpaqOr/4dbHIIAYDGAhQIDAbgQE0LvpKhtKgMApZIuLvqwRp3tHrn4w4bMF0JnzL0dfxvzPY5aqn2g/mp96zLbfW6d3AD13e75/etDkrZHX9wLtP5n7pl5HgEAXgcqgaG64OdzxquN7bENm2LmV4/vce+Gqusrsky4fuA6NVNbG2AA6+/kfYxjjOjFGQfuSfIyWdQgQ2ITA3JPuJjbeRhAg8JQCW7jo2zJ8jJiNm96KC9JnC6Azp9+YMsK46mYte8R91X71/Hx/cxBe35s65Pcu1vtGz43QFoEnFqgKCoNcAH278DK/wB1b7mPDxmvtVdWVAHps785bb2xNbOUB6dnXYfMUvYoAAQI3BATQSoMAgT0KCKHv91rVz/KeKYCOKS9i6ousZepNRWYYfmsfp4Tkc5yOEEDP2e94zZ+dpgs5TwvyaNqQ4d+/N/dNvY7AAQX+bmvtrwwezBi/3Ih5rodzYf9g0n4LoK/DbmUO3SXPMhBAJ31oWmuV5/6xAXTs/Ra+RBnzsOq8ntIyAQIEJgoIoCeCWZ0Agc0IRABoOo7b3dHjxndqZz9TAJ398KSpD5epeEjnlGlCptZSrF95Ezpne7fymn/fWvul1ppR1FvpEduxdYEfHYTSl+H0tcD6HF6/58GO9TgPH3EKji0Ed9F1Y5+zcK2bBdB5n+rKc/+UADp7IMJY4R7HmbHvZT0CBAgsEhBAL+LzYgIEigXiJ3ARvMXFquVVgSkX0b3snimAznx40tdO8/pN6ZePt9YiFF97ee1lbvYYCZ2xVN6EZuxPdpvxhUCMnO/dHz/fWvtrFyOyL0dm/2n2zmmfwAYF3jUYWT0cUX0Orf9ta+23F2730QLorRzX55xnh10pgF5Y2HdeXlkjU6+dM68Fxwp/7nTuH7u+9QgQIFAmIIAuo/fGBAh0FIgpOSJ883DCV1HXHhXxLAF09s+H50yhkr1Ntz6umTc+lTehHQ9PqzQVNRNzg2bM/T4mAIvR1pfThFzOa30OrYfhdcyRbSFA4LZAfKn0jwYjtCP0XmvJmG84pq6KkaPVy5zz7HCbBdB5PVh57p8aQFd9+X+pn/1Q6Lze1jIBAk8lIIB+qu62swQOLRDhc1wIfkwQ/UY/T72QXlogzxJAZ99wzB1VXDESJ3Majsqb0KWfhbVeH18AREgUo/myljEB9Nz3/u6dua6HgfZ/Oq039328jsBRBN59ZQ7ra9OEDP+/GJ095wv63gF09tRVU/p46jRXl20LoKdoT1u38tw/9bo5PlfxpWr10vuzWr0/3p8AgYMKCKAP2rF2i8ATCwiiX+38JXMcTi2jZwmgs0dwzT03V82rmVVjlTehU2t/7fUjcI5fOGQGz+d9+vBpqqO193H4fnN+zRFTh7zzFA5EmH0OtL9VuSPem0CRQDxo8RxK35vXejiVSJxT/mWn7d3Sw6OnhozXCATQnQrjSjOV5/45tVF17TWkWzqlTF5vapkAAQIDgbk3uRAJECCwdYEIoiM4iRHRW/i5Z5XX0p+ZTtnuZwigs6e6mHPzUx0UZtVY5U3olLqvWnetn9xuoR/mBNC3AqLvXAmlh6Otb/13jHKrOMZV1Zf3JdBLYEvhc+xTTGsSvx5Zsgigl+jdf23lOWfONdgWvqQN0bm/nsvrSS0TIEDgQkAArSQIEHgGgQigI4iOi8Q5P0Pds9GaoyIqwpk5wdSS/sy+kY6bny/P3MAfPU1DM/Pls1+WVWOVN6GzMVZ84Vo/ud1CP8zZ14yA6F44PRxlfblehN4WAs8oEHNW/8WR04YMR1+/PQmr1/kq4/gyZpfnHAvHtLuldSrPOXMC6LCrmALtss/mbvuW+t62ECBwcAEB9ME72O4RIPAWgQihf+HJwuilcx2OLaNnCKC/cKqdsSbPsl7GNByVN6F76LdeQcqjfd3CHJdzQpeqgOia57dPU4BcPqjxMrT+b62133nUIf5O4AkEfvhBaB1h9TCwPk8r8iMPbHqMfo63qDq+zDkW7q1cKs/9c0PczGclTOm/ta73p2yTdQkQIPCGgABaMRAg8MwCMTL6I621uNg98jQdvW64HtXK0QPoLQRxj/qg6u+fePl1QUzF0XOpvAntuR+Zba31k9uKz/bQ7YunnxdPsawKiKZs4+W6S8OlP9dae9tpipE/WbIhXktgpwIxcvrWQxljHuxe56mq48vSY8QeurXy3D83gM6enm1sv2VNiTb2/a1HgACBuwICaAVCgACB1wXi4jEuej90+nf876Msa12QVoRUa07BsZV5/rZYl7/RWotR0D2XypvQnvuR2dacYHbO9lT/vHhOKFAVEM3xPb9mabg0HIX3zRtzXV+Owv69i/W+sWQHvJbAkwj8m9ba3zmNwn7vk+zz3N2cevyuPPdP3dahyRbOOX/QWotR0PFvCwECBDYnIIDeXJfYIAIENiJwDqR/5gAjpJdcUE/pjqMH0Ft40vmU/lh73d4//dz6TWj8auIrayNfeb/e7td2aQs31lOvWbewzVPLo2cAPfW9z+v/2Wm6kHjo4r15rS///n9ba/FaC4FnE3jHxXQgw6lBrk0TMvz/YlT20Zep16BbP/ff6q/sZ4SMrZO1fvU4dnusR4AAgTcEpl7MoyNAgMAzC5yn6ohQOsKnvUzbESMh4iep2cvRA+gIXJ7tIZZTaqb3NBx7uAmNALr6OLDGLxw+VfSAy2H9TZ1nXAA95dO7fN2l4fnyLdACgf0JxMODz/NZ35rX+lqg/Z4d7eqzBNDRJVu4Tsz4RdqOys2mEiCwZQEB9JZ7x7YRILB1gQgjI3yKhxpufR7pNY73Rw6gTb/x+NPYezqIPQTQWxjxtMYXTB9vrUUIXblMHdUlgF63twTQ63p7t+cWeNedua4vg+zLUdhrXA8Oe+eZAugtfFkb9lO/sH3uT5O9J0BgNYG1T0Cr7Zg3IkCAQIHAedqOj21gVOTl7q9xvD9yAL2Vm4qCsp70ljHSvtfcg3sIoONLqJgfuXpk/NRwdlKnnr5gi0C3cvlcay32c+wSXw4smcv/p1pr0caay9IQdzgH9JrbHe+1dNvX3l7vR+BZBR5NC3Lr7xF6z1meKYDeytRcU8+Xc/rVawgQIDBZYI1AYvJGeQEBAgQ6CUT4MJzLOf47Lg5fe/l3jNbMXCI8++QpuMl8n7Ftr3G8P3IAXf0QtrH9XL1ezyB0DwF0eG9hbvA1fnJb8fke1vMaI72H71dRf0tDXAH08iPgr5ymRDjPcX1tLuzvL38bLRDYncC7B9OFxJfNY+a6jnXi/BQPjB67VBx7z9s2NSy/tk9bmJortqvngICxfWc9AgQI3BVYI5DQBQQIEFhDIC5YI2Aezs98a1TimiMDtvDT9fBf43hfEVDFTU3cMGQuWxnRkrmPvdruOQ3HXm5CK7dz2G/ZP7ndwpQWa3x5eDatCHMF0L2ORPPbGVPnfzh4QOOUBzV+a/5meSWB3QrE9eeU68O/2lr7D6cA9Z0r73WPAHoLU3MFW+/ncqzcFd6OAIEjCqwRSBzRzT4RIFAncB7FHKFghM3n/z11i3765efVX5v6opnrVwQZl5u6xvF+yg3GTMq3vGyNANr0G9N6q1etVQa7U29CtzBCPvuLtS0cx7L3cVjpX3gZuRdzv6+5CKDX1L7+XmMC6Llb+Z3TQ8puhdbxa4rfndu41xE4oMB7b8x1fTlNyPsH68XI33i445xl6rn/2nvE4Jf45UT1Evc4ca9jIUCAwGYEet0kbmaHbAgBAocSOD/YL+bijMA5/nevZc0gI7a5OqBa43h/1AB6Kz+n7FX72e30GqW6pwB6K790yPzJbWV/DGt2rS8PI0BYe25vAXT20elx+5kB9KN37/GFalwv/chghHaE3hYCzybwtpFThJynEjkH2v+9tfa3O2BtYWqu2I1e12MdSDRBgACBdX6SzZkAAQKPBCJcPo9kPk+hseThUY/e7/z37J+sD7ejehStAHpsVby6XtRhfHlgGS/Q68udysBz6iiordRJ9k9uK0LZy8rrVV/3KrrqJ9QC6PHHmaw19x5AX/5S4duDMPrevNbDua5jhHavh8lm9ZN2CWxZoPL6ZejSc1q0LXvbNgIEdiKwRiCxEwqbSYBAkUDlz7rXeHDXmbVyP2Mb1jjeH3EE9FZGthZ9PGe9ba+HxVXewE0NoAOqYsqGyw7K/snts4zqqvrFigB61iGn64uOFkDPxYkHLd4LrCOkvvz7/2mtDqsI/QAAIABJREFU/fHcN/Q6AgcT+Futtb9wYwqRy5HXP5S472v9aihxFzRNgMBRBNYIJI5iZT8IEMgRiDk2I7ipWtYYTRf7VhlAzwnT5vTHEQPoyjBiTh9s5TU9fkq+twC6+lh27vvMn9xuZR/jS46osfgSsfdSeawWQPfuzentVR7zexw391y/03vLKwgcQ+B9F1OGREB9Oa91TBMynPs6/jvmyH60fPr0QMJH6/k7AQIE0gUE0OnE3oAAgREC1T/rXiOErhw5uMb+RTcfLYDeyoNkRnyENrdKjxuevQXQ0QlVI2eHBZD9k9vq4/V5XzNC6KqpN877JICuP5QJoOf3wdL6jXf++y+/2Ip2bj2ocTjyevjf35u/2V5JYLcC77gz1/U5rH7Xy8NN/+Fu99CGEyBwKAEB9KG6084Q2K1AZTh7RotRwr/YWoufsPdeYo7reJBd1ZI9L+x5v44WQFeHUVX10uN9e0wFsccAunqu93PfZf7kdgvH62EIHcftCN2XLluYbmdpgGf069IqaE0APd9wSf3GF76ffJl7Oj6Hc5aY+uNeaH3rb3805828hgABAgQIEJguIICebuYVBAj0F6gMmoZ7EyPqPtNai9GbvR7AEw8niylGIoSuWnr8rHfMth8tgN7CnL5j3Le6ztKHfFYeF+ZOW7OVhxH2GIF+q662so/D7YsAOoLoOcft2J8I1aPeqpclAV5se2UAHZ+ZL1cD3nj/+EIsfgk0ZhFAj1G6vs7c+o0veyN8XuPh05dbHiOnhw9gHM5r/b9O14TzRbySAAECBAgQeENAAK0YCBDYisAWfrp+togQI25WP79gjtEYzRMjeT72EmjHf1ctvR4IN2b7jxZAV+zPGOe9rDM3jDjv3x4D6Nj2ygBreAyLOSSzli3s4+W+nY/b8SXimF+yxJeCcXyO8Gsry9LPTGUAvRXDa9sx5Qulytru8WVxZQ1Mqd84vsc/HykKnsfUa3ypNfaLi0ft/aXW2ndPo7S/+WhlfydAgAABAkcUEEAfsVftE4F9Cmzh58/X5CLIiJvX/336d6wT/98w4DiPnIugOUKND21kNF1s61rzP8d7VQS2PW7Yr/X7Vh62ts9P8+tbHQ+Ii1HQc5e9BtBbmbqlZ3hy2YeVfTOmnobH7ajDCKdjdGX881On43PFaMtH2z4lwLvWVmX4+GjfKv8ugF5H//La6Nq7xjVS5ZfyYyWm1MyYNodfbJyD6Gsjr4fzWl/7+/fHvJl1CBAgQIDAFgUE0FvsFdtE4DkF4oYkRkHv4cZkTz30Wqf5Ucfs85EC6C3NczvGfqvrLJmLuDLkXBI+bOVYtmQfxtRT5UjRMdu3x3UE0Dm9NuWzUFnXPb5Q9SVEnxpaOoXU5Vb0qqs/HMx1PeVBjd/qw6IVAgQIECAwX0AAPd/OKwkQ6C/gxqmv6ZrTb8SWHymAjpFHvgxZXo9LHoC51wA61LbyBUbvEGVYEZX9s7wyt9mCADqnXwTQOa5HbTVjDv1eAfRc8+/cmev6Msi+HIVdcW03dz+9jgABAgQ2LCCA3nDn2DQCTyiwlZGDR6FfGmZMdai4SekxYuxyP9cI1uKnyjHH+BpLTDlQNc/tlOCnoh9u+S/Z7mgzfmb+lTU698F7ZE/B40GdfTt56THbl7jX+2PK57kyKOxxPlMDyz6TMWVP9MOcB5ree+fKulom0tqjaUFu/T1CbwsBAgQIEHhDQACtGAgQ2JqAm6c+PRI3TzH9Qe+bqHtbd5QA+lOnB0j26YnrrWSMsLq1vfHFTozorlriYXhz6nCNLwKyAuhoNwLoCKIrl+zjQMyjHPvp1wJ9elkA3cfxshUBdI7rEVvN+tXIngPouf387cF0Ief5rK/Naz38/yLMnnO9MHcbvY4AAQIEVhQQQK+I7a0IEBglEEFGBBpbfEDUqB3YyEpLg4w5u3GUADrmIs+uvzXn5q4OQ/9/e3eT28CaFWA4E0aIAStgCSwBiQ0AK4AdIFbAGlgAA+YMmiWwFGZMGIDEgBZIcOhYys3NT5Xtt76y81hqdbeuc+w8dZxrv3HK134Y3qMH6LN8sOotp0HZ8nPALw23KG27zq0/tx2Lj50F6G3799Ovde2/q7a4/cQAvcXlo+uM1Z/u+OLff3l5+YPXX7T/146vc1UCBAgQOFhAgD4Y3M0RILBJ4M9fXl7mT7tdrhOY0zvMu3iOfhfJMwToI06dcPS5uWeLVoap37y8vExw33t59AC9+p3nF+/5eTB/DVFezvBu7/L7O2q2AN1IC9CN6zNNrU9XJEBv35Y9j9eZ+va5wn9+cq7r96cJ+bc315t3YM+HO7oQIECAQCwgQMfAxhMgcLWAc4teTff/5y+cJ/BHX54hQB/xrtX6he5Hx/2IsP7Vvl3zfOPRA/R4nOXDCOufCU7FcZ+ftgL0fRzfT9kTtFaGwns8Tlf+srE5ev3UPftx7b1ZuVfX3udVX7f3eNzjucL/vJ4u5LtThLz/5xOy/3sVlNslQIDAowlc84Lw0b5H95cAgccU8IGE1x23I88t/P4ePkOAPuKdnOWf+X61NfPCadW5eq855cg9XlRe9yj63S9wJgbdejnLX3Nc+y70Pd//Wb7XPff5bNcVoJsjsufxvDIUCtDN8f9qavWhg+9vc+VeHa962y3uebzOLT3Dc4XbxHw1AQIEHkRAgH6QA+VuEvihAqvftflo7PNCak69sery6AF63sU553+uL9d+KN+t92vlu3Gvedf3s7yoPOKc4lt2Y07DMafjKC9HfIBnef9XzxagmyOwJ2itDIUCdHP8P5t6VHye21+5V8eq3n5rex6vc2vP8lzh719eXn7vk1OIvH/ntXdd375nJhAgsEBAgF6A7iYJENgl8Fevf8a+64t+4JVXnff5LfWjB+gjTr+x94XVPVd55WPpmvNeP8uLyrP8SfytcXPrLq78RcfW+3jW6916jM6ya2fz3fNzd2UoFKCP25wj47MAve+47nm8PlOA3vPz+z/enTJkAvX781rPea/fnvt6/vecI9uFAAECywQE6GX0bpgAgR0C3lX3NdbEvXnhOi+oVl4ePUAfcd7xv/m/02DMaVJWXFZ/KN7euPIsAfqod9Z/t1PX/BLgu5mf/fOVEe/a+3yGrxOgm6OwJ2it3N29PyM/0toTsRrt8089Oj6PyMq9Ov8R+eU93PN4na/0XGH7Ef7tF+e6vsTqf315efnH7SNdkwABAtsFBOjtVq5JgMBaAe+q+9j/LPF57t0jB+ij4uwRp0H46pF6xDmuP7v9vecnf5YXleNxxC83tvyEPur84/N4muAyp1Fy2S4gQG+32nPNPUFrZSgUoPcc1euue83poK67pV9+1cq9usf9P3LGnsfrMwXon/hc4ci9clsECJxAQIA+wUFwFwgQ2CwgQv+Sat7FM0Fp9TufL/fqkQP0EaenWH2O7jlOK98dN6eJmQC/9fJMAfqI/driuveF/ZaZn11nIvT8zJ4PJ3zWyzym/+6Op4kSoJtN2bP3K0OhAN0c/8vUlX+BtHKvWtX7T9/zeH22AH2WD/M9w/PV+2+WiQQILBcQoJcfAneAAIGdAkecp3fnXVpy9XmC/hcvLy/zDuizXB45QB/xDtW97wAujuvqD/acD8nc+guTZwrQcyznHI0TZVdf9hyDe9zXZ/3F4ds/47/XB00K0PfYuF/P2BO0VoZCAbo5/vPLz/ll/ezBqsvKvVr1PV97u3ser3MbnitcK/311x39XKH5LkwlQOBUAgL0qQ6HO0OAwEaBeYfARI0zxJyNd/muVztDyPzoG3rkAH1EHDzLk/kjvtfPFn7P7j7bi8qznMt+xZ+gr3zn/V1/+L4Oe38O2Xv9YlSALo7W78LjxN0tl5WhUIDecoT2XWf+nTOPq9W/rF+5V/vE1l97z+P1GQP0T36usH773AMCBFIBATrlNZwAgVBgPthr3rX6k84xeoZ38Xx1SB81QB/xJ49HfgDcdw+7le9I3fNnnc8WoFe/+/yyF7OLcyqUo4PMHM/5mf3ovzj86APM7nUOeQH6u59e1/3zPUFrZSgUoK87vh991dmeL63cq/upHjNpz+P1GQP0WT64eGz/cMFzhWO2zK0QILBEQIBewu5GCRC4o8C8s+6vnyBqfEdylnfxPGOAPiLIrnjX6WfHavX5iLd+EOOzBeg5His/BPLtPhz1YYTvd3BC7UToObaPePnN65/yfxTv7/FzRIButmJP0FoZCgXo24//PDbncTTPmc50WblXZ3LYcl/2PF6fMUCf6bnCyvOmb9kV1yFA4MEEBOgHO2DuLgECHwrMuwXmT9ae8cOu5on4PAHcet7clSvyqO+Avtf5W7+yn/N1T7w6w+Ve79a89nvZ+oLmGQP06vh/OWZ7PxDy2mP92dc94mmUvovD9/hLiu9u47vj8GynOvnu+936z/cErZWhUIDeekR/fb0Jz/OBoBOej/7rji33euVebbl/Z7rOnsfrswZozxXOtJHuCwECdxMQoO9GaRABAicQmGD1tw/87rq3hPMEfGLEyg/N2XtIHzFAH3VahLP9+3blO3G3nobjGQP0xP/5hccZTkNxj9i192fE2+uPwZw7eX5mn/ky+zrvGN/yS8Bbz68uQDebsCdorQyF93hM/rRfQszjcsLz/JXRmS8r9+rMLh/dtz2P12cN0J4rPNrWur8ECGwSONsL4k132pUIECDwjcBExTktx7yD4NEu8yJqXkxtiR1n+94eMUAf8WEv887neQf0mS6rI8WW8wo+Y4CeHbjHqRrusUtnOS3M/AXLROh5B/EZwvzFdt4lPkF4T9i69dgK0PfY7F/P2BO0VoZCAXrb8Z/H5vx7dZ4rzf9+hMvKvXoEn7f3cc/jdb7Oc4X2CJ/xOWz7HZtOgEAmIEBntAYTIHACgYkZEzUmRp/5wwrnyd0/vb6gOuOfjm49lI8YoI84/caq8+1+ddyOeuf3Z/dhi8mzvqhc+X29Px5bz8e99WfALdebn9fzS8P5eT1RetXlmvB8ua+3noZDgG6O+p6gtTIUCtAfH/95XjTH8J9fnyc9SnR++92s3KvmUdVN3fN4feYAvfp52tsjfKbnCt3mmUyAQC4gQOfEboAAgZMITNCY8PNnr/+98p128+Lp7YupR47Obw/vowXooz5p/KxP3G89XcAtD+0t76hZGWr3vgDea3HELz623Kdbg+eW27jmOvPC+y9ff4F4RIyen8Gzk/9wh9Me3fK4uvV4rP7LhmuO9RFfs+fxvDIU/vQAPc+NLv/5l9fH4uX/H7En5W2s3Kvy+ypm73m8PnOAnu/Nc4Viw8wkQGCZgAC9jN4NEyCwWGACx/znj1//e/53EaUvL57mnTuX8PyI797ZcrgmGB59mVOVXBvw53gf8c74s57Hu9r5LTswx+y708wcdXw+ur9b7t+W7/Oz60xUPSKsfncf6+/zu9vf8s8vvzz8kzc/q7d83VfXuXzf83N5Hp/3fIze8ri6NbadZa9uPT73/vo9e37L8bv1ft/y77PLbT/SDuw5Lrfarv76lXu1+nvfe/t798Jzhb3C+6+/95jsvwVfQYDAjxAQoH/EYfZNEiCwQ+ASUd+/iPujT4LRBIN5p87lcgkInqztQHdVAgQI7BC4xJy3v/T66Gf0BL1/f517+dl8j8i34666KgECBAgQIECAAAECArQdIECAAAECBAgQIECAAAECBAgQIECAAIFEQIBOWA0lQIAAAQIECBAgQIAAAQIECBAgQIAAAQHaDhAgQIAAAQIECBAgQIAAAQIECBAgQIBAIiBAJ6yGEiBAgAABAgQIECBAgAABAgQIECBAgIAAbQcIECBAgAABAgQIECBAgAABAgQIECBAIBEQoBNWQwkQIECAAAECBAgQIECAAAECBAgQIEBAgLYDBAgQIECAAAECBAgQIECAAAECBAgQIJAICNAJq6EECBAgQIAAAQIECBAgQIAAAQIECBAgIEDbAQIECBAgQIAAAQIECBAgQIAAAQIECBBIBATohNVQAgQIECBAgAABAgQIECBAgAABAgQIEBCg7QABAgQIECBAgAABAgQIECBAgAABAgQIJAICdMJqKAECBAgQIECAAAECBAgQIECAAAECBAgI0HaAAAECBAgQIECAAAECBAgQIECAAAECBBIBATphNZQAAQIECBAgQIAAAQIECBAgQIAAAQIEBGg7QIAAAQIECBAgQIAAAQIECBAgQIAAAQKJgACdsBpKgAABAgQIECBAgAABAgQIECBAgAABAgK0HSBAgAABAgQIECBAgAABAgQIECBAgACBRECATlgNJUCAAAECBAgQIECAAAECBAgQIECAAAEB2g4QIECAAAECBAgQIECAAAECBAgQIECAQCIgQCeshhIgQIAAAQIECBAgQIAAAQIECBAgQICAAG0HCBAgQIAAAQIECBAgQIAAAQIECBAgQCAREKATVkMJECBAgAABAgQIECBAgAABAgQIECBAQIC2AwQIECBAgAABAgQIECBAgAABAgQIECCQCAjQCauhBAgQIECAAAECBAgQIECAAAECBAgQICBA2wECBAgQIECAAAECBAgQIECAAAECBAgQSAQE6ITVUAIECBAgQIAAAQIECBAgQIAAAQIECBAQoO0AAQIECBAgQIAAAQIECBAgQIAAAQIECCQCAnTCaigBAgQIECBAgAABAgQIECBAgAABAgQICNB2gAABAgQIECBAgAABAgQIECBAgAABAgQSAQE6YTWUAAECBAgQIECAAAECBAgQIECAAAECBARoO0CAAAECBAgQIECAAAECBAgQIECAAAECiYAAnbAaSoAAAQIECBAgQIAAAQIECBAgQIAAAQICtB0gQIAAAQIECBAgQIAAAQIECBAgQIAAgURAgE5YDSVAgAABAgQIECBAgAABAgQIECBAgAABAdoOECBAgAABAgQIECBAgAABAgQIECBAgEAiIEAnrIYSIECAAAECBAgQIECAAAECBAgQIECAgABtBwgQIECAAAECBAgQIECAAAECBAgQIEAgERCgE1ZDCRAgQIAAAQIECBAgQIAAAQIECBAgQECAtgMECBAgQIAAAQIECBAgQIAAAQIECBAgkAgI0AmroQQIECBAgAABAgQIECBAgAABAgQIECAgQNsBAgQIECBAgAABAgQIECBAgAABAgQIEEgEBOiE1VACBAgQIECAAAECBAgQIECAAAECBAgQEKDtAAECBAgQIECAAAECBAgQIECAAAECBAgkAgJ0wmooAQIECBAgQIAAAQIECBAgQIAAAQIECAjQdoAAAQIECBAgQIAAAQIECBAgQIAAAQIEEgEBOmE1lAABAgQIECBAgAABAgQIECBAgAABAgQEaDtAgAABAgQIECBAgAABAgQIECBAgAABAomAAJ2wGkqAAAECBAgQIECAAAECBAgQIECAAAECArQdIECAAAECBAgQIECAAAECBAgQIECAAIFEQIBOWA0lQIAAAQIECBAgQIAAAQIECBAgQIAAAQHaDhAgQIAAAQIECBAgQIAAAQIECBAgQIBAIiBAJ6yGEiBAgAABAgQIECBAgAABAgQIECBAgIAAbQcIECBAgAABAgQIECBAgAABAgQIECBAIBEQoBNWQwkQIECAAAECBAgQIECAAAECBAgQIEBAgLYDBAgQIECAAAECBAgQIECAAAECBAgQIJAICNAJq6EECBAgQIAAAQIECBAgQIAAAQIECBAgIEDbAQIECBAgQIAAAQIECBAgQIAAAQIECBBIBATohNVQAgQIECBAgAABAgQIECBAgAABAgQIEBCg7QABAgQIECBAgAABAgQIECBAgAABAgQIJAICdMJqKAECBAgQIECAAAECBAgQIECAAAECBAgI0HaAAAECBAgQIECAAAECBAgQIECAAAECBBIBATphNZQAAQIECBAgQIAAAQIECBAgQIAAAQIEBGg7QIAAAQIECBAgQIAAAQIECBAgQIAAAQKJgACdsBpKgAABAgQIECBAgAABAgQIECBAgAABAgK0HSBAgAABAgQIECBAgAABAgQIECBAgACBRECATlgNJUCAAAECBAgQIECAAAECBAgQIECAAAEB2g4QIECAAAECBAgQIECAAAECBAgQIECAQCIgQCeshhIgQIAAAQIECBAgQIAAAQIECBAgQICAAG0HCBAgQIAAAQIECBAgQIAAAQIECBAgQCAREKATVkMJECBAgAABAgQIECBAgAABAgQIECBAQIC2AwQIECBAgAABAgQIECBAgAABAgQIECCQCAjQCauhBAgQIECAAAECBAgQIECAAAECBAgQICBA2wECBAgQIECAAAECBAgQIECAAAECBAgQSAQE6ITVUAIECBAgQIAAAQIECBAgQIAAAQIECBAQoO0AAQIECBAgQIAAAQIECBAgQIAAAQIECCQCAnTCaigBAgQIECBAgAABAgQIECBAgAABAgQICNB2gAABAgQIECBAgAABAgQIECBAgAABAgQSAQE6YTWUAAECBAgQIECAAAECBAgQIECAAAECBARoO0CAAAECBAgQIECAAAECBAgQIECAAAECiYAAnbAaSoAAAQIECBAgQIAAAQIECBAgQIAAAQICtB0gQIAAAQIECBAgQIAAAQIECBAgQIAAgURAgE5YDSVAgAABAgQIECBAgAABAgQIECBAgAABAdoOECBAgAABAgQIECBAgAABAgQIECBAgEAiIEAnrIYSIECAAAECBAgQIECAAAECBAgQIECAgABtBwgQIECAAAECBAgQIECAAAECBAgQIEAgERCgE1ZDCRAgQIAAAQIECBAgQIAAAQIECBAgQECAtgMECBAgQIAAAQIECBAgQIAAAQIECBAgkAgI0AmroQQIECBAgAABAgQIECBAgAABAgQIECAgQNsBAgQIECBAgAABAgQIECBAgAABAgQIEEgEBOiE1VACBAgQIECAAAECBAgQIECAAAECBAgQEKDtAAECBAgQIECAAAECBAgQIECAAAECBAgkAgJ0wmooAQIECBAgQIAAAQIECBAgQIAAAQIECAjQdoAAAQIECBAgQIAAAQIECBAgQIAAAQIEEgEBOmE1lAABAgQIECBAgAABAgQIECBAgAABAgQEaDtAgAABAgQIECBAgAABAgQIECBAgAABAomAAJ2wGkqAAAECBAgQIECAAAECBAgQIECAAAECArQdIECAAAECBAgQIECAAAECBAgQIECAAIFEQIBOWA0lQIAAAQIECBAgQIAAAQIECBAgQIAAAQHaDhAgQIAAAQIECBAgQIAAAQIECBAgQIBAIiBAJ6yGEiBAgAABAgQIECBAgAABAgQIECBAgIAAbQcIECBAgAABAgQIECBAgAABAgQIECBAIBEQoBNWQwkQIECAAAECBAgQIECAAAECBAgQIEBAgLYDBAgQIECAAAECBAgQIECAAAECBAgQIJAICNAJq6EECBAgQIAAAQIECBAgQIAAAQIECBAgIEDbAQIECBAgQIAAAQIECBAgQIAAAQIECBBIBATohNVQAgQIECBAgAABAgQIECBAgAABAgQIEBCg7QABAgQIECBAgAABAgQIECBAgAABAgQIJAICdMJqKAECBAgQIECAAAECBAgQIECAAAECBAgI0HaAAAECBAgQIECAAAECBAgQIECAAAECBBIBATphNZQAAQIECBAgQIAAAQIECBAgQIAAAQIEBGg7QIAAAQIECBAgQIAAAQIECBAgQIAAAQKJgACdsBpKgAABAgQIECBAgAABAgQIECBAgAABAgK0HSBAgAABAgQIECBAgAABAgQIECBAgACBRECATlgNJUCAAAECBAgQIECAAAECBAgQIECAAAEB2g4QIECAAAECBAgQIECAAAECBAgQIECAQCIgQCeshhIgQIAAAQIECBAgQIAAAQIECBAgQICAAG0HCBAgQIAAAQIECBAgQIAAAQIECBAgQCAREKATVkMJECBAgAABAgQIECBAgAABAgQIECBAQIC2AwQIECBAgAABAgQIECBAgAABAgQIECCQCAjQCauhBAgQIECAAAECBAgQIECAAAECBAgQICBA2wECBAgQIECAAAECBAgQIECAAAECBAgQSAQE6ITVUAIECBAgQIAAAQIECBAgQIAAAQIECBAQoO0AAQIECBAgQIAAAQIECBAgQIAAAQIECCQCAnTCaigBAgQIECBAgAABAgQIECBAgAABAgQICNB2gAABAgQIECBAgAABAgQIECBAgAABAgQSAQE6YTWUAAECBAgQIECAAAECBAgQIECAAAECBARoO0CAAAECBAgQIECAAAECBAgQIECAAAECiYAAnbAaSoAAAQIECBAgQIAAAQIECBAgQIAAAQICtB0gQIAAAQIECBAgQIAAAQIECBAgQIAAgURAgE5YDSVAgAABAgQIECBAgAABAgQIECBAgAABAdoOECBAgAABAgQIECBAgAABAgQIECBAgEAiIEAnrIYSIECAAAECBAgQIECAAAECBAgQIECAgABtBwgQIECAAAECBAgQIECAAAECBAgQIEAgERCgE1ZDCRAgQIAAAQIECBAgQIAAAQIECBAgQECAtgMECBAgQIAAAQIECBAgQIAAAQIECBAgkAgI0AmroQQIECBAgAABAgQIECBAgAABAgQIECAgQNsBAgQIECBAgAABAgQIECBAgAABAgQIEEgEBOiE1VACBAgQIECAAAECBAgQIECAAAECBAgQEKDtAAECBAgQIECAAAECBAgQIECAAAECBAgkAgJ0wmooAQIECBAgQIAAAQIECBAgQIAAAQIECAjQdoAAAQIECBAgQIAAAQIECBAgQIAAAQIEEgEBOmE1lAABAgQIECBAgAABAgQIECBAgAABAgQEaDtAgAABAgQIECBAgAABAgQIECBAgAABAomAAJ2wGkqAAAECBAgQIECAAAECBAgQIECAAAEVAppvAAAgAElEQVQCArQdIECAAAECBAgQIECAAAECBAgQIECAAIFEQIBOWA0lQIAAAQIECBAgQIAAAQIECBAgQIAAAQHaDhAgQIAAAQIECBAgQIAAAQIECBAgQIBAIiBAJ6yGEiBAgAABAgQIECBAgAABAgQIECBAgIAAbQcIECBAgAABAgQIECBAgAABAgQIECBAIBEQoBNWQwkQIECAAAECBAgQIECAAAECBAgQIEBAgLYDBAgQIECAAAECBAgQIECAAAECBAgQIJAICNAJq6EECBAgQIAAAQIECBAgQIAAAQIECBAgIEDbAQIECBAgQIAAAQIECBAgQIAAAQIECBBIBATohNVQAgQIECBAgAABAgQIECBAgAABAgQIEBCg7QABAgQIECBAgAABAgQIECBAgAABAgQIJAICdMJqKAECBAgQIECAAAECBAgQIECAAAECBAgI0HaAAAECBAgQIECAAAECBAgQIECAAAECBBIBATphNZQAAQIECBAgQIAAAQIECBAgQIAAAQIEBGg7QIAAAQIECBAgQIAAAQIECBAgQIAAAQKJgACdsBpKgAABAgQIECBAgAABAgQIECBAgAABAgK0HSBAgAABAgQIECBAgAABAgQIECBAgACBRECATlgNJUCAAAECBAgQIECAAAECBAgQIECAAAEB2g4QIECAAAECBAgQIECAAAECBAgQIECAQCIgQCeshhIgQIAAAQIECBAgQIAAAQIECBAgQICAAG0HCBAgQIAAAQIECBAgQIAAAQIECBAgQCAREKATVkMJECBAgAABAgQIECBAgAABAgQIECBAQIC2AwQIECBAgAABAgQIECBAgAABAgQIECCQCAjQCauhBAgQIECAAAECBAgQIECAAAECBAgQICBA2wECBAgQIECAAAECBAgQIECAAAECBAgQSAQE6ITVUAIECBAgQIAAAQIECBAgQIAAAQIECBAQoO0AAQIECBAgQIAAAQIECBAgQIAAAQIECCQCAnTCaigBAgQIECBAgAABAgQIECBAgAABAgQICNB2gAABAgQIECBAgAABAgQIECBAgAABAgQSAQE6YTWUAAECBAgQIECAAAECBAgQIECAAAECBARoO0CAAAECBAgQIECAAAECBAgQIECAAAECiYAAnbAaSoAAAQIECBAgQIAAAQIECBAgQIAAAQICtB0gQIAAAQIECBAgQIAAAQIECBAgQIAAgURAgE5YDSVAgAABAgQIECBAgAABAgQIECBAgAABAdoOECBAgAABAgQIECBAgAABAgQIECBAgEAiIEAnrIYSIECAAAECBAgQIECAAAECBAgQIECAgABtBwgQIECAAAECBAgQIECAAAECBAgQIEAgERCgE1ZDCRAgQIAAAQIECBAgQIAAAQIECBAgQECAtgMECBAgQIAAAQIECBAgQIAAAQIECBAgkAgI0AmroQQIECBAgAABAgQIECBAgAABAgQIECAgQNsBAgQIECBAgAABAgQIECBAgAABAgQIEEgEBOiE1VACBAgQIECAAAECBAgQIECAAAECBAgQEKDtAAECBAgQIECAAAECBAgQIECAAAECBAgkAgJ0wmooAQIECBAgQIAAAQIECBAgQIAAAQIECAjQdoAAAQIECBAgQIAAAQIECBAgQIAAAQIEEgEBOmE1lAABAgQIECBAgAABAgQIECBAgAABAgQEaDtAgAABAgQIECBAgAABAgQIECBAgAABAomAAJ2wGkqAAAECBAgQIECAAAECBAgQIECAAAECArQdIECAAAECBAgQIECAAAECBAgQIECAAIFEQIBOWA0lQIAAAQIECBAgQIAAAQIECBAgQIAAAQHaDhAgQIAAAQIECBAgQIAAAQIECBAgQIBAIiBAJ6yGEiBAgAABAgQIECBAgAABAgQIECBAgIAAbQcIECBAgAABAgQIECBAgAABAgQIECBAIBEQoBNWQwkQIECAAAECBAgQIECAAAECBAgQIEBAgLYDBAgQIECAAAECBAgQIECAAAECBAgQIJAICNAJq6EECBAgQIAAAQIECBAgQIAAAQIECBAgIEDbAQIECBAgQIAAAQIECBAgQIAAAQIECBBIBATohNVQAgQIECBAgAABAgQIECBAgAABAgQIEBCg7QABAgQIECBAgAABAgQIECBAgAABAgQIJAICdMJqKAECBAgQIECAAAECBAgQIECAAAECBAgI0HaAAAECBAgQIECAAAECBAgQIECAAAECBBIBATphNZQAAQIECBAgQIAAAQIECBAgQIAAAQIEBGg7QIAAAQIECBAgQIAAAQIECBAgQIAAAQKJgACdsBpKgAABAgQIECBAgAABAgQIECBAgAABAgK0HSBAgAABAgQIECBAgAABAgQIECBAgACBRECATlgNJUCAAAECBAgQIECAAAECBAgQIECAAAEB2g4QIECAAAECBAgQIECAAAECBAgQIECAQCIgQCeshhIgQIAAAQIECBAgQIAAAQIECBAgQICAAG0HCBAgQIAAAQIECBAgQIAAAQIECBAgQCAREKATVkMJECBAgAABAgQIECBAgAABAgQIECBAQIC2AwQIECBAgAABAgQIECBAgAABAgQIECCQCAjQCauhBAgQIECAAAECBAgQIECAAAECBAgQICBA2wECBAgQIECAAAECBAgQIECAAAECBAgQSAQE6ITVUAIECBAgQIAAAQIECBAgQIAAAQIECBAQoO0AAQIECBAgQIAAAQIECBAgQIAAAQIECCQCAnTCaigBAgQIECBAgAABAgQIECBAgAABAgQICNB2gAABAgQIECBAgAABAgQIECBAgAABAgQSAQE6YTWUAAECBAgQIECAAAECBAgQIECAAAECBARoO0CAAAECBAgQIECAAAECBAgQIECAAAECiYAAnbAaSoAAAQIECBAgQIAAAQIECBAgQIAAAQICtB0gQIAAAQIECBAgQIAAAQIECBAgQIAAgURAgE5YDSVAgAABAgQIECBAgAABAgQIECBAgAABAdoOECBAgAABAgQIECBAgAABAgQIECBAgEAiIEAnrIYSIECAAAECBAgQIECAAAECBAgQIECAgABtBwgQIECAAAECBAgQIECAAAECBAgQIEAgERCgE1ZDCRAgQIAAAQIECBAgQIAAAQIECBAgQECAtgMECBAgQIAAAQIECBAgQIAAAQIECBAgkAgI0AmroQQIECBAgAABAgQIECBAgAABAgQIECAgQNsBAgQIECBAgAABAgQIECBAgAABAgQIEEgEBOiE1VACBAgQIECAAAECBAgQIECAAAECBAgQEKDtAAECBAgQIECAAAECBAgQIECAAAECBAgkAgJ0wmooAQIECBAgQIAAAQIECBAgQIAAAQIECAjQdoAAAQIECBAgQIAAAQIECBAgQIAAAQIEEgEBOmE1lAABAgQIECBAgAABAgQIECBAgAABAgQEaDtAgAABAgQIECBAgAABAgQIECBAgAABAomAAJ2wGkqAAAECBAgQIECAAAECBAgQIECAAAECArQdIECAAAECBAgQIECAAAECBAgQIECAAIFEQIBOWA0lQIAAAQIECBAgQIAAAQIECBAgQIAAAQHaDhAgQIAAAQIECBAgQIAAAQIECBAgQIBAIiBAJ6yGEiBAgAABAgQIECBAgAABAgQIECBAgIAAbQcIECBAgAABAgQIECBAgAABAgQIECBAIBEQoBNWQwkQIECAAAECBAgQIECAAAECBAgQIEBAgLYDBAgQIECAAAECBAgQIECAAAECBAgQIJAICNAJq6EECBAgQIAAAQIECBAgQIAAAQIECBAgIEDbAQIECBAgQIAAAQIECBAgQIAAAQIECBBIBATohNVQAgQIECBAgAABAgQIECBAgAABAgQIEBCg7QABAgQIECBAgAABAgQIECBAgAABAgQIJAICdMJqKAECBAgQIECAAAECBAgQIECAAAECBAgI0HaAAAECBAgQIECAAAECBAgQIECAAAECBBIBATphNZQAAQIECBAgQIAAAQIECBAgQIAAAQIEBGg7QIAAAQIECBAgQIAAAQIECBAgQIAAAQKJgACdsBpKgAABAgQIECBAgAABAgQIECBAgAABAgK0HSBAgAABAgQIECBAgAABAgQIECBAgACBRECATlgNJUCAAAECBAgQIECAAAECBAgQIECAAAEB2g4QIECAAAECBAgQIECAAAECBAgQIECAQCIgQCeshhIgQIAAAQIECBAgQIAAAQIECBAgQICAAG0HCBAgQIAAAQIECBAgQIAAAQIECBAgQCAREKATVkMJECBAgAABAgQIECBAgAABAgQIECBAQIC2AwQIECBAgAABAgQIECBAgAABAgQIECCQCAjQCauhBAgQIECAAAECBAgQIECAAAECBAgQICBA2wECBAgQIECAAAECBAgQIECAAAECBAgQSAQE6ITVUAIECBAgQIAAAQIECBAgQIAAAQIECBAQoO0AAQIECBAgQIAAAQIECBAgQIAAAQIECCQCAnTCaigBAgQIECBAgAABAgQIECBAgAABAgQICNB2gAABAgQIECBAgAABAgQIECBAgAABAgQSAQE6YTWUAAECBAgQIECAAAECBAgQIECAAAECBARoO0CAAAECBAgQIECAAAECBAgQIECAAAECiYAAnbAaSoAAAQIECBAgQIAAAQIECBAgQIAAAQICtB0gQIAAAQIECBAgQIAAAQIECBAgQIAAgURAgE5YDSVAgAABAgQIECBAgAABAgQIECBAgAABAdoOECBAgAABAgQIECBAgAABAgQIECBAgEAiIEAnrIYSIECAAAECBAgQIECAAAECBAgQIECAgABtBwgQIECAAAECBAgQIECAAAECBAgQIEAgERCgE1ZDCRAgQIAAAQIECBAgQIAAAQIECBAgQECAtgMECBAgQIAAAQIECBAgQIAAAQIECBAgkAgI0AmroQQIECBAgAABAgQIECBAgAABAgQIECAgQNsBAgQIECBAgAABAgQIECBAgAABAgQIEEgEBOiE1VACBAgQIECAAAECBAgQIECAAAECBAgQEKDtAAECBAgQIECAAAECBAgQIECAAAECBAgkAgJ0wmooAQIECBAgQIAAAQIECBAgQIAAAQIECAjQdoAAAQIECBAgQIAAAQIECBAgQIAAAQIEEgEBOmE1lAABAgQIECBAgAABAgQIECBAgAABAgQEaDtAgAABAgQIECBAgAABAgQIECBAgAABAomAAJ2wGkqAAAECBAgQIECAAAECBAgQIECAAAECArQdIECAAAECBAgQIECAAAECBAgQIECAAIFEQIBOWA0lQIAAAQIECBAgQIAAAQIECBAgQIAAAQHaDhAgQIAAAQIECBAgQIAAAQIECBAgQIBAIiBAJ6yGEiBAgAABAgQIECBAgAABAgQIECBAgIAAbQcIECBAgAABAgQIECBAgAABAgQIECBAIBEQoBNWQwkQIECAAAECBAgQIECAAAECBAgQIEBAgLYDBAgQIECAAAECBAgQIECAAAECBAgQIJAICNAJq6EECBAgQIAAAQIECBAgQIAAAQIECBAgIEDbAQIECBAgQIAAAQIECBAgQIAAAQIECBBIBATohNVQAgQIECBAgAABAgQIECBAgAABAgQIEBCg7QABAgQIECBAgAABAgQIECBAgAABAgQIJAICdMJqKAECBAgQIECAAAECBAgQIECAAAECBAgI0HaAAAECBAgQIECAAAECBAgQIECAAAECBBIBATphNZQAAQIECBAgQIAAAQIECBAgQIAAAQIEBGg7QIAAAQIECBAgQIAAAQIECBAgQIAAAQKJgACdsBpKgAABAgQIECBAgAABAgQIECBAgAABAgK0HSBAgAABAgQIECBAgAABAgQIECBAgACBRECATlgNJUCAAAECBAgQIECAAAECBAgQIECAAAEB2g4QIECAAAECBAgQIECAAAECBAgQIECAQCIgQCeshhIgQIAAAQIECBAgQIAAAQIECBAgQICAAG0HCBAgQIAAAQIECBAgQIAAAQIECBAgQCAREKATVkMJECBAgAABAgQIECBAgAABAgQIECBAQIC2AwQIECBAgAABAgQIECBAgAABAgQIECCQCAjQCauhBAgQIECAAAECBAgQIECAAAECBAgQICBA2wECBAgQIECAAAECBAgQIECAAAECBAgQSAQE6ITVUAIECBAgQIAAAQIECBAgQIAAAQIECBAQoO0AAQIECBAgQIAAAQIECBAgQIAAAQIECCQCAnTCaigBAgQIECBAgAABAgQIECBAgAABAgQICNB2gAABAgQIECBAgAABAgQIECBAgAABAgQSAQE6YTWUAAECBAgQIECAAAECBAgQIECAAAECBARoO0CAAAECBAgQIECAAAECBAgQIECAAAECiYAAnbAaSoAAAQIECBAgQIAAAQIECBAgQIAAAQICtB0gQIAAAQIECBAgQIAAAQIECBAgQIAAgURAgE5YDSVAgAABAgQIECBAgAABAgQIECBAgAABAdoOECBAgAABAgQIECBAgAABAgQIECBAgEAiIEAnrIYSIECAAAECBAgQIECAAAECBAgQIECAgABtBwgQIECAAAECBAgQIECAAAECBAgQIEAgERCgE1ZDCRAgQIAAAQIECBAgQIAAAQIECBAgQECAtgMECBAgQIAAAQIECBAgQIAAAQIECBAgkAgI0AmroQQIECBAgAABAgQIECBAgAABAgQIECAgQNsBAgQIECBAgAABAgQIECBAgAABAgQIEEgEBOiE1VACBAgQIECAAAECBAgQIECAAAECBAgQEKDtAAECBAgQIECAAAECBAgQIECAAAECBAgkAgJ0wmooAQIECBAgQIAAAQIECBAgQIAAAQIECAjQdoAAAQIECBAgQIAAAQIECBAgQIAAAQIEEgEBOmE1lAABAgQIECBAgAABAgQIECBAgAABAgQEaDtAgAABAgQIECBAgAABAgQIECBAgAABAomAAJ2wGkqAAAECBAgQIECAAAECBAgQIECAAAECArQdIECAAAECBAgQIECAAAECBAgQIECAAIFEQIBOWA0lQIAAAQIECBAgQIAAAQIECBAgQIAAAQHaDhAgQIAAAQIECBAgQIAAAQIECBAgQIBAIiBAJ6yGEiBAgAABAgQIECBAgAABAgQIECBAgIAAbQcIECBAgAABAgQIECBAgAABAgQIECBAIBEQoBNWQwkQIECAAAECBAgQIECAAAECBAgQIEBAgLYDBAgQIECAAAECBAgQIECAAAECBAgQIJAICNAJq6EECBAgQIAAAQIECBAgQIAAAQIECBAgIEDbAQIECBAgQIAAAQIECBAgQIAAAQIECBBIBATohNVQAgQIECBAgAABAgQIECBAgAABAgQIEBCg7QABAgQIECBAgAABAgQIECBAgAABAgQIJAICdMJqKAECBAgQIECAAAECBAgQIECAAAECBAgI0HaAAAECBAgQIECAAAECBAgQIECAAAECBBIBATphNZQAAQIECBAgQIAAAQIECBAgQIAAAQIEBGg7QIAAAQIECBAgQIAAAQIECBAgQIAAAQKJgACdsBpKgAABAgQIECBAgAABAgQIECBAgAABAgK0HSBAgAABAgQIECBAgAABAgQIECBAgACBRECATlgNJUCAAAECBAgQIECAAAECBAgQIECAAAEB2g4QIECAAAECBAgQIECAAAECBAgQIECAQCIgQCeshhIgQIAAAQIECBAgQIAAAQIECBAgQICAAG0HCBAgQIAAAQIECBAgQIAAAQIECBAgQCAREKATVkMJECBAgAABAgQIECBAgAABAgQIECBAQIC2AwQIECBAgAABAgQIECBAgAABAgQIECCQCAjQCauhBAgQIECAAAECBAgQIECAAAECBAgQICBA2wECBAgQIECAAAECBAgQIECAAAECBAgQSAQE6ITVUAIECBAgQIAAAQIECBAgQIAAAQIECBAQoO0AAQIECBAgQIAAAQIECBAgQIAAAQIECCQCAnTCaigBAgQIECBAgAABAgQIECBAgAABAgQICNB2gAABAgQIECBAgAABAgQIECBAgAABAgQSAQE6YTWUAAECBAgQIECAAAECBAgQIECAAAECBARoO0CAAAECBAgQIECAAAECBAgQIECAAAECiYAAnbAaSoAAAQIECBAgQIAAAQIECBAgQIAAAQICtB0gQIAAAQIECBAgQIAAAQIECBAgQIAAgURAgE5YDSVAgAABAgQIECBAgAABAgQIECBAgAABAdoOECBAgAABAgQIECBAgAABAgQIECBAgEAiIEAnrIYSIECAAAECBAgQIECAAAECBAgQIECAgABtBwgQIECAAAECBAgQIECAAAECBAgQIEAgERCgE1ZDCRAgQIAAAQIECBAgQIAAAQIECBAgQECAtgMECBAgQIAAAQIECBAgQIAAAQIECBAgkAgI0AmroQQIECBAgAABAgQIECBAgAABAgQIECAgQNsBAgQIECBAgAABAgQIECBAgAABAgQIEEgEBOiE1VACBAgQIECAAAECBAgQIECAAAECBAgQEKDtAAECBAgQIECAAAECBAgQIECAAAECBAgkAgJ0wmooAQIECBAgQIAAAQIECBAgQIAAAQIECAjQdoAAAQIECBAgQIAAAQIECBAgQIAAAQIEEgEBOmE1lAABAgQIECBAgAABAgQIECBAgAABAgQEaDtAgAABAgQIECBAgAABAgQIECBAgAABAomAAJ2wGkqAAAECBAgQIECAAAECBAgQIECAAAECArQdIECAAAECBAgQIECAAAECBAgQIECAAIFEQIBOWA0lQIAAAQIECBAgQIAAAQIECBAgQIAAAQHaDhAgQIAAAQIECBAgQIAAAQIECBAgQIBAIiBAJ6yGEiBAgAABAgQIECBAgAABAgQIECBAgIAAbQcIECBAgAABAgQIECBAgAABAgQIECBAIBEQoBNWQwkQIECAAAECBAgQIECAAAECBAgQIEBAgLYDBAgQIECAAAECBAgQIECAAAECBAgQIJAICNAJq6EECBAgQIAAAQIECBAgQIAAAQIECBAgIEDbAQIECBAgQIAAAQIECBAgQIAAAQIECBBIBATohNVQAgQIECBAgAABAgQIECBAgAABAgQIEBCg7QABAgQIECBAgAABAgQIECBAgAABAgQIJAICdMJqKAECBAgQIECAAAECBAgQIECAAAECBAgI0HaAAAECBAgQIECAAAECBAgQIECAAAECBBIBATphNZQAAQIECBAgQIAAAQIECBAgQIAAAQIEBGg7QIAAAQIECBAgQIAAAQIECBAgQIAAAQKJgACdsBpKgAABAgQIECBAgAABAgQIECBAgAABAgK0HSBAgAABAgQIECBAgAABAgQIECBAgACBRECATlgNJUCAAAECBAgQIECAAAECBAgQIECAAAEB2g4QIECAAAECBAgQIECAAAECBAgQIECAQCIgQCeshhIgQIAAAQIECBAgQIAAAQIECBAgQICAAG0HCBAgQIAAAQIECBAgQIAAAQIECBAgQCAREKATVkMJECBAgAABAgQIECBAgAABAgQIECBAQIC2AwQIECBAgAABAgQIECBAgAABAgQIECCQCAjQCauhBAgQIECAAAECBAgQIECAAAECBAgQICBA2wECBAgQIECAAAECBAgQIECAAAECBAgQSAQE6ITVUAIECBAgQIAAAQIECBAgQIAAAQIECBAQoO0AAQIECBAgQIAAAQIECBAgQIAAAQIECCQCAnTCaigBAgQIECBAgAABAgQIECBAgAABAgQICNB2gAABAgQIECBAgAABAgQIECBAgAABAgQSAQE6YTWUAAECBAgQIECAAAECBAgQIECAAAECBARoO0CAAAECBAgQIECAAAECBAgQIECAAAECiYAAnbAaSoAAAQIECBAgQIAAAQIECBAgQIAAAQICtB0gQIAAAQIECBAgQIAAAQIECBAgQIAAgURAgE5YDSVAgAABAgQIECBAgAABAgQIECBAgAABAdoOECBAgAABAgQIECBAgAABAgQIECBAgEAiIEAnrIYSIECAAAECBAgQIECAAAECBAgQIECAgABtBwgQIECAAAECBAgQIECAAAECBAgQIEAgERCgE1ZDCRAgQIAAAQIECBAgQIAAAQIECBAgQECAtgMECBAgQIAAAQIECBAgQIAAAQIECBAgkAgI0AmroQQIECBAgAABAgQIECBAgAABAgQIECAgQNsBAgQIECBAgAABAgQIECBAgAABAgQIEEgEBOiE1VACBAgQIECAAAECBAgQIECAAAECBAgQEKDtAAECBAgQIECAAAECBAgQIECAAAECBAgkAgJ0wmooAQIECBAgQIAAAQIECBAgQIAAAQIECAjQdoAAAQIECBAgQIAAAQIECBAgQIAAAQIEEgEBOmE1lAABAgQIECBAgAABAgQIECBAgAABAgQEaDtAgAABAgQIECBAgAABAgQIECBAgAABAomAAJ2wGkqAAAECBAgQIECAAAECBAgQIECAAAECArQdIECAAAECBAgQIECAAAECBAgQIECAAIFEQIBOWA0lQIAAAQIECBAgQIAAAQIECBAgQIAAAQHaDhAgQIAAAQIECBAgQIAAAQIECBAgQIBAIiBAJ6yGEiBAgAABAgQIECBAgAABAgQIECBAgIAAbQcIECBAgAABAgQIECBAgAABAgQIECBAIBEQoBNWQwkQIECAAAECBAgQIECAAAECBAgQIEBAgLYDBAgQIECAAAECBAgQIECAAAECBAgQIJAICNAJq6EECBAgQIAAAQIECBAgQIAAAQIECBAgIEDbAQIECBAgQIAAAQIECBAgQIAAAQIECBBIBATohNVQAgQIECBAgAABAgQIECBAgAABAgQIEBCg7QABAgQIECBAgAABAoYj83MAAAWmSURBVAQIECBAgAABAgQIJAICdMJqKAECBAgQIECAAAECBAgQIECAAAECBAgI0HaAAAECBAgQIECAAAECBAgQIECAAAECBBIBATphNZQAAQIECBAgQIAAAQIECBAgQIAAAQIEBGg7QIAAAQIECBAgQIAAAQIECBAgQIAAAQKJgACdsBpKgAABAgQIECBAgAABAgQIECBAgAABAgK0HSBAgAABAgQIECBAgAABAgQIECBAgACBRECATlgNJUCAAAECBAgQIECAAAECBAgQIECAAAEB2g4QIECAAAECBAgQIECAAAECBAgQIECAQCIgQCeshhIgQIAAAQIECBAgQIAAAQIECBAgQICAAG0HCBAgQIAAAQIECBAgQIAAAQIECBAgQCAREKATVkMJECBAgAABAgQIECBAgAABAgQIECBAQIC2AwQIECBAgAABAgQIECBAgAABAgQIECCQCAjQCauhBAgQIECAAAECBAgQIECAAAECBAgQICBA2wECBAgQIECAAAECBAgQIECAAAECBAgQSAQE6ITVUAIECBAgQIAAAQIECBAgQIAAAQIECBAQoO0AAQIECBAgQIAAAQIECBAgQIAAAQIECCQCAnTCaigBAgQIECBAgAABAgQIECBAgAABAgQICNB2gAABAgQIECBAgAABAgQIECBAgAABAgQSAQE6YTWUAAECBAgQIECAAAECBAgQIECAAAECBARoO0CAAAECBAgQIECAAAECBAgQIECAAAECiYAAnbAaSoAAAQIECBAgQIAAAQIECBAgQIAAAQICtB0gQIAAAQIECBAgQIAAAQIECBAgQIAAgURAgE5YDSVAgAABAgQIECBAgAABAgQIECBAgAABAdoOECBAgAABAgQIECBAgAABAgQIECBAgEAiIEAnrIYSIECAAAECBAgQIECAAAECBAgQIECAgABtBwgQIECAAAECBAgQIECAAAECBAgQIEAgERCgE1ZDCRAgQIAAAQIECBAgQIAAAQIECBAgQECAtgMECBAgQIAAAQIECBAgQIAAAQIECBAgkAgI0AmroQQIECBAgAABAgQIECBAgAABAgQIECAgQNsBAgQIECBAgAABAgQIECBAgAABAgQIEEgEBOiE1VACBAgQIECAAAECBAgQIECAAAECBAgQEKDtAAECBAgQIECAAAECBAgQIECAAAECBAgkAgJ0wmooAQIECBAgQIAAAQIECBAgQIAAAQIECAjQdoAAAQIECBAgQIAAAQIECBAgQIAAAQIEEgEBOmE1lAABAgQIECBAgAABAgQIECBAgAABAgQEaDtAgAABAgQIECBAgAABAgQIECBAgAABAomAAJ2wGkqAAAECBAgQIECAAAECBAgQIECAAAECArQdIECAAAECBAgQIECAAAECBAgQIECAAIFEQIBOWA0lQIAAAQIECBAgQIAAAQIECBAgQIAAAQHaDhAgQIAAAQIECBAgQIAAAQIECBAgQIBAIiBAJ6yGEiBAgAABAgQIECBAgAABAgQIECBAgIAAbQcIECBAgAABAgQIECBAgAABAgQIECBAIBEQoBNWQwkQIECAAAECBAgQIECAAAECBAgQIEBAgLYDBAgQIECAAAECBAgQIECAAAECBAgQIJAICNAJq6EECBAgQIAAAQIECBAgQIAAAQIECBAgIEDbAQIECBAgQIAAAQIECBAgQIAAAQIECBBIBATohNVQAgQIECBAgAABAgQIECBAgAABAgQIEBCg7QABAgQIECBAgAABAgQIECBAgAABAgQIJAICdMJqKAECBAgQIECAAAECBAgQIECAAAECBAgI0HaAAAECBAgQIECAAAECBAgQIECAAAECBBIBATphNZQAAQIECBAgQIAAAQIECBAgQIAAAQIEBGg7QIAAAQIECBAgQIAAAQIECBAgQIAAAQKJwP8C51xV/OkVsAQAAAAASUVORK5CYII=;" vertex="1" parent="1">
          <mxGeometry x="-253.34" y="-180" width="906.67" height="680" as="geometry" />
        </mxCell>
      </root>
    </mxGraphModel>
  </diagram>
</mxfile>
